<?xml version="1.0" encoding="UTF-8"?>
<svg xmlns="http://www.w3.org/2000/svg" xmlns:xlink="http://www.w3.org/1999/xlink" width="378pt" height="171pt" viewBox="0 0 378 171" version="1.1">
<g id="surface1">
<path style="fill:none;stroke-width:1;stroke-linecap:round;stroke-linejoin:miter;stroke:rgb(0%,0%,0%);stroke-opacity:1;stroke-miterlimit:10;" d="M 169 98.515625 L 198.0625 98.4875 " transform="matrix(1.25,0,0,1.25,-116.25,-31.25)"/>
<path style="fill:none;stroke-width:1;stroke-linecap:butt;stroke-linejoin:miter;stroke:rgb(0%,0%,0%);stroke-opacity:1;stroke-miterlimit:10;" d="M 202.0625 98.484375 L 198.0625 98.4875 M 198.0625 96.9875 L 202.0625 98.484375 L 198.0625 99.9875 " transform="matrix(1.25,0,0,1.25,-116.25,-31.25)"/>
<path style="fill-rule:nonzero;fill:rgb(100%,100%,100%);fill-opacity:1;stroke-width:1;stroke-linecap:round;stroke-linejoin:round;stroke:rgb(0%,0%,0%);stroke-opacity:1;stroke-miterlimit:10;" d="M 94 129.5 L 169 129.5 L 169 161 L 94 161 Z M 94 129.5 " transform="matrix(1.25,0,0,1.25,-116.25,-31.25)"/>
<path style=" stroke:none;fill-rule:nonzero;fill:rgb(0%,0%,0%);fill-opacity:1;" d="M 36.667969 153.4375 L 36.667969 145.390625 L 37.722656 145.390625 L 37.722656 153.4375 Z M 36.667969 153.4375 "/>
<path style=" stroke:none;fill-rule:nonzero;fill:rgb(0%,0%,0%);fill-opacity:1;" d="M 39.480469 153.4375 L 39.480469 147.597656 L 40.378906 147.597656 L 40.378906 148.4375 C 40.796875 147.804688 41.414062 147.480469 42.234375 147.480469 C 42.585938 147.480469 42.90625 147.546875 43.191406 147.675781 C 43.492188 147.792969 43.710938 147.960938 43.855469 148.164062 C 44 148.359375 44.101562 148.601562 44.167969 148.886719 C 44.207031 149.070312 44.226562 149.390625 44.226562 149.84375 L 44.226562 153.4375 L 43.230469 153.4375 L 43.230469 149.882812 C 43.230469 149.484375 43.191406 149.179688 43.113281 148.984375 C 43.035156 148.789062 42.898438 148.632812 42.703125 148.515625 C 42.507812 148.390625 42.28125 148.320312 42.019531 148.320312 C 41.601562 148.320312 41.238281 148.457031 40.925781 148.730469 C 40.625 148.992188 40.476562 149.5 40.476562 150.253906 L 40.476562 153.4375 Z M 39.480469 153.4375 "/>
<path style=" stroke:none;fill-rule:nonzero;fill:rgb(0%,0%,0%);fill-opacity:1;" d="M 45.734375 155.664062 L 45.734375 147.597656 L 46.632812 147.597656 L 46.632812 148.359375 C 46.839844 148.0625 47.074219 147.84375 47.335938 147.695312 C 47.609375 147.554688 47.941406 147.480469 48.332031 147.480469 C 48.824219 147.480469 49.261719 147.613281 49.640625 147.871094 C 50.015625 148.121094 50.304688 148.476562 50.5 148.945312 C 50.695312 149.414062 50.792969 149.921875 50.792969 150.46875 C 50.792969 151.070312 50.679688 151.609375 50.460938 152.089844 C 50.25 152.574219 49.945312 152.945312 49.542969 153.203125 C 49.136719 153.445312 48.707031 153.574219 48.253906 153.574219 C 47.925781 153.574219 47.632812 153.5 47.375 153.359375 C 47.113281 153.21875 46.898438 153.042969 46.730469 152.832031 L 46.730469 155.664062 Z M 46.632812 150.546875 C 46.632812 151.304688 46.78125 151.867188 47.082031 152.226562 C 47.394531 152.578125 47.765625 152.753906 48.195312 152.753906 C 48.625 152.753906 48.996094 152.574219 49.308594 152.207031 C 49.632812 151.832031 49.796875 151.25 49.796875 150.46875 C 49.796875 149.726562 49.640625 149.175781 49.328125 148.808594 C 49.027344 148.433594 48.664062 148.242188 48.234375 148.242188 C 47.816406 148.242188 47.445312 148.445312 47.121094 148.847656 C 46.792969 149.238281 46.632812 149.804688 46.632812 150.546875 Z M 46.632812 150.546875 "/>
<path style=" stroke:none;fill-rule:nonzero;fill:rgb(0%,0%,0%);fill-opacity:1;" d="M 55.816406 153.4375 L 55.816406 152.578125 C 55.355469 153.242188 54.742188 153.574219 53.960938 153.574219 C 53.617188 153.574219 53.300781 153.507812 53.003906 153.378906 C 52.699219 153.238281 52.476562 153.066406 52.320312 152.871094 C 52.171875 152.675781 52.074219 152.4375 52.027344 152.148438 C 51.988281 151.953125 51.96875 151.640625 51.96875 151.210938 L 51.96875 147.597656 L 52.945312 147.597656 L 52.945312 150.839844 C 52.945312 151.363281 52.96875 151.710938 53.023438 151.875 C 53.070312 152.140625 53.199219 152.34375 53.394531 152.5 C 53.597656 152.648438 53.851562 152.714844 54.15625 152.714844 C 54.453125 152.714844 54.730469 152.648438 54.996094 152.5 C 55.253906 152.34375 55.433594 152.140625 55.542969 151.875 C 55.644531 151.617188 55.699219 151.230469 55.699219 150.722656 L 55.699219 147.597656 L 56.695312 147.597656 L 56.695312 153.4375 Z M 55.816406 153.4375 "/>
<path style=" stroke:none;fill-rule:nonzero;fill:rgb(0%,0%,0%);fill-opacity:1;" d="M 60.40625 152.558594 L 60.542969 153.417969 C 60.257812 153.480469 60.007812 153.515625 59.800781 153.515625 C 59.4375 153.515625 59.15625 153.457031 58.960938 153.339844 C 58.765625 153.222656 58.621094 153.078125 58.53125 152.890625 C 58.453125 152.710938 58.414062 152.324219 58.414062 151.738281 L 58.414062 148.378906 L 57.691406 148.378906 L 57.691406 147.597656 L 58.414062 147.597656 L 58.414062 146.152344 L 59.410156 145.566406 L 59.410156 147.597656 L 60.40625 147.597656 L 60.40625 148.378906 L 59.410156 148.378906 L 59.410156 151.777344 C 59.410156 152.066406 59.421875 152.246094 59.449219 152.324219 C 59.488281 152.402344 59.546875 152.46875 59.625 152.519531 C 59.703125 152.574219 59.8125 152.597656 59.957031 152.597656 C 60.074219 152.597656 60.222656 152.585938 60.40625 152.558594 Z M 60.40625 152.558594 "/>
<path style="fill-rule:nonzero;fill:rgb(100%,100%,100%);fill-opacity:1;stroke-width:1;stroke-linecap:round;stroke-linejoin:round;stroke:rgb(0%,0%,0%);stroke-opacity:1;stroke-miterlimit:10;" d="M 106.625 70.8 L 181.625 70.8 L 181.625 102.3 L 106.625 102.3 Z M 106.625 70.8 " transform="matrix(1.25,0,0,1.25,-116.25,-31.25)"/>
<path style="fill-rule:nonzero;fill:rgb(100%,100%,100%);fill-opacity:1;stroke-width:1;stroke-linecap:round;stroke-linejoin:round;stroke:rgb(0%,0%,0%);stroke-opacity:1;stroke-miterlimit:10;" d="M 101 76.8 L 176 76.8 L 176 108.3 L 101 108.3 Z M 101 76.8 " transform="matrix(1.25,0,0,1.25,-116.25,-31.25)"/>
<path style="fill-rule:nonzero;fill:rgb(100%,100%,100%);fill-opacity:1;stroke-width:1;stroke-linecap:round;stroke-linejoin:round;stroke:rgb(0%,0%,0%);stroke-opacity:1;stroke-miterlimit:10;" d="M 94 82.8 L 169 82.8 L 169 114.3 L 94 114.3 Z M 94 82.8 " transform="matrix(1.25,0,0,1.25,-116.25,-31.25)"/>
<path style=" stroke:none;fill-rule:nonzero;fill:rgb(0%,0%,0%);fill-opacity:1;" d="M 14.347656 95.0625 L 14.347656 87.953125 L 11.710938 87.953125 L 11.710938 87.015625 L 18.078125 87.015625 L 18.078125 87.953125 L 15.421875 87.953125 L 15.421875 95.0625 Z M 14.347656 95.0625 "/>
<path style=" stroke:none;fill-rule:nonzero;fill:rgb(0%,0%,0%);fill-opacity:1;" d="M 18.617188 95.0625 L 18.617188 89.222656 L 19.515625 89.222656 L 19.515625 90.121094 C 19.734375 89.707031 19.945312 89.433594 20.140625 89.300781 C 20.335938 89.171875 20.550781 89.105469 20.785156 89.105469 C 21.105469 89.105469 21.449219 89.210938 21.800781 89.417969 L 21.449219 90.335938 C 21.214844 90.195312 20.96875 90.121094 20.726562 90.121094 C 20.515625 90.121094 20.320312 90.1875 20.140625 90.316406 C 19.96875 90.449219 19.847656 90.628906 19.769531 90.863281 C 19.660156 91.214844 19.613281 91.601562 19.613281 92.015625 L 19.613281 95.0625 Z M 18.617188 95.0625 "/>
<path style=" stroke:none;fill-rule:nonzero;fill:rgb(0%,0%,0%);fill-opacity:1;" d="M 26.191406 94.339844 C 25.824219 94.652344 25.472656 94.875 25.136719 95.003906 C 24.792969 95.132812 24.433594 95.199219 24.042969 95.199219 C 23.402344 95.199219 22.910156 95.042969 22.558594 94.730469 C 22.214844 94.417969 22.050781 94.015625 22.050781 93.519531 C 22.050781 93.234375 22.113281 92.972656 22.246094 92.738281 C 22.371094 92.503906 22.542969 92.320312 22.753906 92.171875 C 22.957031 92.03125 23.191406 91.917969 23.457031 91.839844 C 23.652344 91.800781 23.945312 91.757812 24.335938 91.703125 C 25.140625 91.617188 25.730469 91.5 26.113281 91.351562 C 26.113281 91.226562 26.113281 91.136719 26.113281 91.097656 C 26.113281 90.695312 26.019531 90.414062 25.839844 90.257812 C 25.574219 90.023438 25.199219 89.90625 24.707031 89.90625 C 24.238281 89.90625 23.890625 89.992188 23.671875 90.160156 C 23.445312 90.316406 23.285156 90.605469 23.183594 91.019531 L 22.226562 90.902344 C 22.304688 90.488281 22.441406 90.15625 22.636719 89.90625 C 22.839844 89.648438 23.132812 89.453125 23.515625 89.320312 C 23.90625 89.179688 24.34375 89.105469 24.84375 89.105469 C 25.351562 89.105469 25.75 89.164062 26.054688 89.28125 C 26.367188 89.398438 26.589844 89.550781 26.738281 89.730469 C 26.894531 89.902344 26.996094 90.121094 27.050781 90.394531 C 27.089844 90.566406 27.109375 90.863281 27.109375 91.292969 L 27.109375 92.621094 C 27.109375 93.535156 27.128906 94.117188 27.167969 94.359375 C 27.207031 94.609375 27.289062 94.84375 27.421875 95.0625 L 26.386719 95.0625 C 26.277344 94.859375 26.214844 94.613281 26.191406 94.339844 Z M 26.113281 92.132812 C 25.746094 92.28125 25.203125 92.402344 24.492188 92.503906 C 24.085938 92.570312 23.796875 92.640625 23.632812 92.71875 C 23.460938 92.789062 23.328125 92.890625 23.242188 93.03125 C 23.148438 93.179688 23.105469 93.335938 23.105469 93.5 C 23.105469 93.765625 23.203125 93.984375 23.398438 94.164062 C 23.59375 94.335938 23.886719 94.417969 24.277344 94.417969 C 24.652344 94.417969 24.988281 94.335938 25.292969 94.164062 C 25.589844 94 25.808594 93.769531 25.957031 93.480469 C 26.058594 93.261719 26.113281 92.933594 26.113281 92.503906 Z M 26.113281 92.132812 "/>
<path style=" stroke:none;fill-rule:nonzero;fill:rgb(0%,0%,0%);fill-opacity:1;" d="M 28.640625 88.148438 L 28.640625 87.015625 L 29.636719 87.015625 L 29.636719 88.148438 Z M 28.640625 95.0625 L 28.640625 89.222656 L 29.636719 89.222656 L 29.636719 95.0625 Z M 28.640625 95.0625 "/>
<path style=" stroke:none;fill-rule:nonzero;fill:rgb(0%,0%,0%);fill-opacity:1;" d="M 31.136719 95.0625 L 31.136719 89.222656 L 32.035156 89.222656 L 32.035156 90.0625 C 32.453125 89.429688 33.070312 89.105469 33.890625 89.105469 C 34.242188 89.105469 34.5625 89.171875 34.847656 89.300781 C 35.148438 89.417969 35.367188 89.585938 35.511719 89.789062 C 35.65625 89.984375 35.757812 90.226562 35.824219 90.511719 C 35.863281 90.695312 35.882812 91.015625 35.882812 91.46875 L 35.882812 95.0625 L 34.886719 95.0625 L 34.886719 91.507812 C 34.886719 91.109375 34.847656 90.804688 34.769531 90.609375 C 34.691406 90.414062 34.554688 90.257812 34.359375 90.140625 C 34.164062 90.015625 33.9375 89.945312 33.675781 89.945312 C 33.257812 89.945312 32.894531 90.082031 32.582031 90.355469 C 32.28125 90.617188 32.132812 91.125 32.132812 91.878906 L 32.132812 95.0625 Z M 31.136719 95.0625 "/>
<path style=" stroke:none;fill-rule:nonzero;fill:rgb(0%,0%,0%);fill-opacity:1;" d="M 37.394531 88.148438 L 37.394531 87.015625 L 38.390625 87.015625 L 38.390625 88.148438 Z M 37.394531 95.0625 L 37.394531 89.222656 L 38.390625 89.222656 L 38.390625 95.0625 Z M 37.394531 95.0625 "/>
<path style=" stroke:none;fill-rule:nonzero;fill:rgb(0%,0%,0%);fill-opacity:1;" d="M 39.894531 95.0625 L 39.894531 89.222656 L 40.792969 89.222656 L 40.792969 90.0625 C 41.207031 89.429688 41.828125 89.105469 42.648438 89.105469 C 43 89.105469 43.316406 89.171875 43.605469 89.300781 C 43.902344 89.417969 44.125 89.585938 44.269531 89.789062 C 44.410156 89.984375 44.515625 90.226562 44.582031 90.511719 C 44.621094 90.695312 44.640625 91.015625 44.640625 91.46875 L 44.640625 95.0625 L 43.644531 95.0625 L 43.644531 91.507812 C 43.644531 91.109375 43.605469 90.804688 43.527344 90.609375 C 43.449219 90.414062 43.3125 90.257812 43.117188 90.140625 C 42.921875 90.015625 42.691406 89.945312 42.433594 89.945312 C 42.015625 89.945312 41.652344 90.082031 41.339844 90.355469 C 41.039062 90.617188 40.890625 91.125 40.890625 91.878906 L 40.890625 95.0625 Z M 39.894531 95.0625 "/>
<path style=" stroke:none;fill-rule:nonzero;fill:rgb(0%,0%,0%);fill-opacity:1;" d="M 45.976562 95.550781 L 46.933594 95.6875 C 46.972656 95.984375 47.082031 96.199219 47.265625 96.332031 C 47.511719 96.511719 47.851562 96.605469 48.28125 96.605469 C 48.734375 96.605469 49.085938 96.511719 49.335938 96.332031 C 49.582031 96.148438 49.75 95.890625 49.84375 95.570312 C 49.894531 95.359375 49.914062 94.941406 49.902344 94.300781 C 49.472656 94.808594 48.9375 95.0625 48.300781 95.0625 C 47.492188 95.0625 46.867188 94.78125 46.425781 94.203125 C 45.996094 93.617188 45.78125 92.921875 45.78125 92.113281 C 45.78125 91.554688 45.878906 91.039062 46.074219 90.570312 C 46.28125 90.101562 46.574219 89.746094 46.953125 89.496094 C 47.328125 89.238281 47.777344 89.105469 48.300781 89.105469 C 48.988281 89.105469 49.554688 89.378906 50 89.925781 L 50 89.222656 L 50.917969 89.222656 L 50.917969 94.261719 C 50.917969 95.171875 50.820312 95.8125 50.625 96.195312 C 50.441406 96.570312 50.148438 96.867188 49.746094 97.09375 C 49.355469 97.3125 48.867188 97.425781 48.28125 97.425781 C 47.578125 97.425781 47.011719 97.269531 46.582031 96.957031 C 46.164062 96.644531 45.960938 96.175781 45.976562 95.550781 Z M 46.796875 92.035156 C 46.796875 92.804688 46.945312 93.363281 47.246094 93.714844 C 47.542969 94.066406 47.921875 94.242188 48.378906 94.242188 C 48.832031 94.242188 49.21875 94.066406 49.53125 93.714844 C 49.84375 93.363281 50 92.816406 50 92.074219 C 50 91.359375 49.835938 90.820312 49.511719 90.453125 C 49.199219 90.09375 48.820312 89.90625 48.378906 89.90625 C 47.933594 89.90625 47.558594 90.09375 47.246094 90.453125 C 46.945312 90.804688 46.796875 91.332031 46.796875 92.035156 Z M 46.796875 92.035156 "/>
<path style=" stroke:none;fill-rule:nonzero;fill:rgb(0%,0%,0%);fill-opacity:1;" d="M 55.535156 88.148438 L 55.535156 87.015625 L 56.53125 87.015625 L 56.53125 88.148438 Z M 55.535156 95.0625 L 55.535156 89.222656 L 56.53125 89.222656 L 56.53125 95.0625 Z M 55.535156 95.0625 "/>
<path style=" stroke:none;fill-rule:nonzero;fill:rgb(0%,0%,0%);fill-opacity:1;" d="M 58.035156 95.0625 L 58.035156 89.222656 L 58.933594 89.222656 L 58.933594 90.0625 C 59.347656 89.429688 59.96875 89.105469 60.789062 89.105469 C 61.140625 89.105469 61.457031 89.171875 61.746094 89.300781 C 62.042969 89.417969 62.261719 89.585938 62.410156 89.789062 C 62.550781 89.984375 62.652344 90.226562 62.722656 90.511719 C 62.761719 90.695312 62.78125 91.015625 62.78125 91.46875 L 62.78125 95.0625 L 61.785156 95.0625 L 61.785156 91.507812 C 61.785156 91.109375 61.746094 90.804688 61.667969 90.609375 C 61.589844 90.414062 61.453125 90.257812 61.257812 90.140625 C 61.0625 90.015625 60.832031 89.945312 60.574219 89.945312 C 60.152344 89.945312 59.792969 90.082031 59.480469 90.355469 C 59.175781 90.617188 59.03125 91.125 59.03125 91.878906 L 59.03125 95.0625 Z M 58.035156 95.0625 "/>
<path style=" stroke:none;fill-rule:nonzero;fill:rgb(0%,0%,0%);fill-opacity:1;" d="M 64.292969 97.289062 L 64.292969 89.222656 L 65.191406 89.222656 L 65.191406 89.984375 C 65.394531 89.6875 65.628906 89.46875 65.894531 89.320312 C 66.167969 89.179688 66.5 89.105469 66.890625 89.105469 C 67.382812 89.105469 67.816406 89.238281 68.199219 89.496094 C 68.574219 89.746094 68.863281 90.101562 69.058594 90.570312 C 69.253906 91.039062 69.351562 91.546875 69.351562 92.09375 C 69.351562 92.695312 69.238281 93.234375 69.019531 93.714844 C 68.808594 94.199219 68.5 94.570312 68.101562 94.828125 C 67.695312 95.070312 67.265625 95.199219 66.8125 95.199219 C 66.484375 95.199219 66.191406 95.125 65.933594 94.984375 C 65.667969 94.84375 65.453125 94.667969 65.289062 94.457031 L 65.289062 97.289062 Z M 65.191406 92.171875 C 65.191406 92.929688 65.335938 93.492188 65.640625 93.851562 C 65.953125 94.203125 66.324219 94.378906 66.753906 94.378906 C 67.183594 94.378906 67.554688 94.199219 67.867188 93.832031 C 68.1875 93.457031 68.355469 92.875 68.355469 92.09375 C 68.355469 91.351562 68.199219 90.800781 67.886719 90.433594 C 67.582031 90.058594 67.222656 89.867188 66.792969 89.867188 C 66.371094 89.867188 66 90.070312 65.679688 90.472656 C 65.351562 90.863281 65.191406 91.429688 65.191406 92.171875 Z M 65.191406 92.171875 "/>
<path style=" stroke:none;fill-rule:nonzero;fill:rgb(0%,0%,0%);fill-opacity:1;" d="M 74.378906 95.0625 L 74.378906 94.203125 C 73.917969 94.867188 73.304688 95.199219 72.523438 95.199219 C 72.179688 95.199219 71.863281 95.132812 71.566406 95.003906 C 71.261719 94.863281 71.039062 94.691406 70.882812 94.496094 C 70.734375 94.300781 70.636719 94.0625 70.589844 93.773438 C 70.550781 93.578125 70.53125 93.265625 70.53125 92.835938 L 70.53125 89.222656 L 71.507812 89.222656 L 71.507812 92.464844 C 71.507812 92.988281 71.53125 93.335938 71.585938 93.5 C 71.632812 93.765625 71.761719 93.96875 71.957031 94.125 C 72.160156 94.273438 72.414062 94.339844 72.71875 94.339844 C 73.015625 94.339844 73.292969 94.273438 73.558594 94.125 C 73.816406 93.96875 73.996094 93.765625 74.105469 93.5 C 74.207031 93.242188 74.261719 92.855469 74.261719 92.347656 L 74.261719 89.222656 L 75.257812 89.222656 L 75.257812 95.0625 Z M 74.378906 95.0625 "/>
<path style=" stroke:none;fill-rule:nonzero;fill:rgb(0%,0%,0%);fill-opacity:1;" d="M 78.976562 94.183594 L 79.113281 95.042969 C 78.824219 95.105469 78.574219 95.140625 78.371094 95.140625 C 78.003906 95.140625 77.726562 95.082031 77.53125 94.964844 C 77.335938 94.847656 77.1875 94.703125 77.101562 94.515625 C 77.023438 94.335938 76.984375 93.949219 76.984375 93.363281 L 76.984375 90.003906 L 76.261719 90.003906 L 76.261719 89.222656 L 76.984375 89.222656 L 76.984375 87.777344 L 77.980469 87.191406 L 77.980469 89.222656 L 78.976562 89.222656 L 78.976562 90.003906 L 77.980469 90.003906 L 77.980469 93.402344 C 77.980469 93.691406 77.988281 93.871094 78.019531 93.949219 C 78.058594 94.027344 78.117188 94.09375 78.195312 94.144531 C 78.273438 94.199219 78.378906 94.222656 78.527344 94.222656 C 78.644531 94.222656 78.789062 94.210938 78.976562 94.183594 Z M 78.976562 94.183594 "/>
<path style=" stroke:none;fill-rule:nonzero;fill:rgb(0%,0%,0%);fill-opacity:1;" d="M 79.542969 93.324219 L 80.519531 93.167969 C 80.566406 93.558594 80.71875 93.859375 80.96875 94.066406 C 81.226562 94.277344 81.578125 94.378906 82.023438 94.378906 C 82.476562 94.378906 82.8125 94.289062 83.039062 94.105469 C 83.257812 93.925781 83.371094 93.710938 83.371094 93.460938 C 83.371094 93.226562 83.273438 93.050781 83.078125 92.933594 C 82.929688 92.84375 82.59375 92.726562 82.0625 92.582031 C 81.328125 92.402344 80.820312 92.246094 80.539062 92.113281 C 80.265625 91.984375 80.054688 91.800781 79.914062 91.566406 C 79.765625 91.332031 79.699219 91.074219 79.699219 90.785156 C 79.699219 90.527344 79.757812 90.289062 79.875 90.0625 C 79.992188 89.84375 80.152344 89.652344 80.363281 89.496094 C 80.519531 89.394531 80.722656 89.300781 80.988281 89.222656 C 81.261719 89.144531 81.542969 89.105469 81.847656 89.105469 C 82.300781 89.105469 82.695312 89.171875 83.039062 89.300781 C 83.390625 89.433594 83.648438 89.609375 83.820312 89.828125 C 83.984375 90.054688 84.101562 90.351562 84.171875 90.726562 L 83.195312 90.863281 C 83.15625 90.566406 83.023438 90.332031 82.804688 90.160156 C 82.59375 89.992188 82.300781 89.90625 81.925781 89.90625 C 81.464844 89.90625 81.144531 89.984375 80.949219 90.140625 C 80.753906 90.289062 80.65625 90.460938 80.65625 90.667969 C 80.65625 90.800781 80.695312 90.914062 80.773438 91 C 80.851562 91.117188 80.976562 91.210938 81.164062 91.273438 C 81.25 91.3125 81.539062 91.398438 82.023438 91.527344 C 82.726562 91.710938 83.214844 91.859375 83.488281 91.976562 C 83.769531 92.09375 83.996094 92.269531 84.152344 92.503906 C 84.308594 92.726562 84.386719 93.007812 84.386719 93.34375 C 84.386719 93.6875 84.289062 94 84.09375 94.28125 C 83.898438 94.570312 83.613281 94.796875 83.253906 94.964844 C 82.902344 95.121094 82.492188 95.199219 82.023438 95.199219 C 81.265625 95.199219 80.683594 95.042969 80.285156 94.730469 C 79.894531 94.40625 79.644531 93.9375 79.542969 93.324219 Z M 79.542969 93.324219 "/>
<path style="fill-rule:nonzero;fill:rgb(100%,100%,100%);fill-opacity:1;stroke-width:1;stroke-linecap:round;stroke-linejoin:round;stroke:rgb(0%,0%,0%);stroke-opacity:1;stroke-miterlimit:10;" d="M 319.034375 69.99375 L 394.034375 69.99375 L 394.034375 101.49375 L 319.034375 101.49375 Z M 319.034375 69.99375 " transform="matrix(1.25,0,0,1.25,-116.25,-31.25)"/>
<path style="fill-rule:nonzero;fill:rgb(100%,100%,100%);fill-opacity:1;stroke-width:1;stroke-linecap:round;stroke-linejoin:round;stroke:rgb(0%,0%,0%);stroke-opacity:1;stroke-miterlimit:10;" d="M 312.2 76.7 L 387.2 76.7 L 387.2 108.2 L 312.2 108.2 Z M 312.2 76.7 " transform="matrix(1.25,0,0,1.25,-116.25,-31.25)"/>
<path style="fill-rule:nonzero;fill:rgb(100%,100%,100%);fill-opacity:1;stroke-width:1;stroke-linecap:round;stroke-linejoin:round;stroke:rgb(0%,0%,0%);stroke-opacity:1;stroke-miterlimit:10;" d="M 305.2 82.7 L 380.2 82.7 L 380.2 114.2 L 305.2 114.2 Z M 305.2 82.7 " transform="matrix(1.25,0,0,1.25,-116.25,-31.25)"/>
<path style=" stroke:none;fill-rule:nonzero;fill:rgb(0%,0%,0%);fill-opacity:1;" d="M 278.664062 94.9375 L 278.664062 87.828125 L 276.027344 87.828125 L 276.027344 86.890625 L 282.394531 86.890625 L 282.394531 87.828125 L 279.738281 87.828125 L 279.738281 94.9375 Z M 278.664062 94.9375 "/>
<path style=" stroke:none;fill-rule:nonzero;fill:rgb(0%,0%,0%);fill-opacity:1;" d="M 282.929688 94.9375 L 282.929688 89.097656 L 283.828125 89.097656 L 283.828125 89.996094 C 284.046875 89.582031 284.257812 89.308594 284.453125 89.175781 C 284.648438 89.046875 284.863281 88.980469 285.097656 88.980469 C 285.417969 88.980469 285.761719 89.085938 286.113281 89.292969 L 285.761719 90.210938 C 285.527344 90.070312 285.28125 89.996094 285.039062 89.996094 C 284.828125 89.996094 284.632812 90.0625 284.453125 90.191406 C 284.28125 90.324219 284.160156 90.503906 284.082031 90.738281 C 283.972656 91.089844 283.925781 91.476562 283.925781 91.890625 L 283.925781 94.9375 Z M 282.929688 94.9375 "/>
<path style=" stroke:none;fill-rule:nonzero;fill:rgb(0%,0%,0%);fill-opacity:1;" d="M 290.503906 94.214844 C 290.136719 94.527344 289.785156 94.75 289.449219 94.878906 C 289.105469 95.007812 288.746094 95.074219 288.355469 95.074219 C 287.714844 95.074219 287.222656 94.917969 286.871094 94.605469 C 286.527344 94.292969 286.363281 93.890625 286.363281 93.394531 C 286.363281 93.109375 286.425781 92.847656 286.558594 92.613281 C 286.683594 92.378906 286.855469 92.195312 287.066406 92.046875 C 287.269531 91.90625 287.503906 91.792969 287.769531 91.714844 C 287.964844 91.675781 288.257812 91.632812 288.648438 91.578125 C 289.453125 91.492188 290.042969 91.375 290.425781 91.226562 C 290.425781 91.101562 290.425781 91.011719 290.425781 90.972656 C 290.425781 90.570312 290.332031 90.289062 290.152344 90.132812 C 289.886719 89.898438 289.511719 89.78125 289.019531 89.78125 C 288.550781 89.78125 288.203125 89.867188 287.984375 90.035156 C 287.757812 90.191406 287.597656 90.480469 287.496094 90.894531 L 286.539062 90.777344 C 286.617188 90.363281 286.753906 90.03125 286.949219 89.78125 C 287.152344 89.523438 287.445312 89.328125 287.828125 89.195312 C 288.21875 89.054688 288.65625 88.980469 289.15625 88.980469 C 289.664062 88.980469 290.0625 89.039062 290.367188 89.15625 C 290.679688 89.273438 290.902344 89.425781 291.050781 89.605469 C 291.207031 89.777344 291.308594 89.996094 291.363281 90.269531 C 291.402344 90.441406 291.421875 90.738281 291.421875 91.167969 L 291.421875 92.496094 C 291.421875 93.410156 291.441406 93.992188 291.480469 94.234375 C 291.519531 94.484375 291.601562 94.71875 291.734375 94.9375 L 290.699219 94.9375 C 290.589844 94.734375 290.527344 94.488281 290.503906 94.214844 Z M 290.425781 92.007812 C 290.058594 92.15625 289.515625 92.277344 288.804688 92.378906 C 288.398438 92.445312 288.109375 92.515625 287.945312 92.59375 C 287.773438 92.664062 287.640625 92.765625 287.554688 92.90625 C 287.460938 93.054688 287.417969 93.210938 287.417969 93.375 C 287.417969 93.640625 287.515625 93.859375 287.710938 94.039062 C 287.90625 94.210938 288.199219 94.292969 288.589844 94.292969 C 288.964844 94.292969 289.300781 94.210938 289.605469 94.039062 C 289.902344 93.875 290.121094 93.644531 290.269531 93.355469 C 290.371094 93.136719 290.425781 92.808594 290.425781 92.378906 Z M 290.425781 92.007812 "/>
<path style=" stroke:none;fill-rule:nonzero;fill:rgb(0%,0%,0%);fill-opacity:1;" d="M 292.953125 88.023438 L 292.953125 86.890625 L 293.949219 86.890625 L 293.949219 88.023438 Z M 292.953125 94.9375 L 292.953125 89.097656 L 293.949219 89.097656 L 293.949219 94.9375 Z M 292.953125 94.9375 "/>
<path style=" stroke:none;fill-rule:nonzero;fill:rgb(0%,0%,0%);fill-opacity:1;" d="M 295.453125 94.9375 L 295.453125 89.097656 L 296.351562 89.097656 L 296.351562 89.9375 C 296.765625 89.304688 297.386719 88.980469 298.207031 88.980469 C 298.558594 88.980469 298.875 89.046875 299.164062 89.175781 C 299.460938 89.292969 299.679688 89.460938 299.828125 89.664062 C 299.96875 89.859375 300.070312 90.101562 300.140625 90.386719 C 300.179688 90.570312 300.199219 90.890625 300.199219 91.34375 L 300.199219 94.9375 L 299.203125 94.9375 L 299.203125 91.382812 C 299.203125 90.984375 299.164062 90.679688 299.085938 90.484375 C 299.007812 90.289062 298.871094 90.132812 298.675781 90.015625 C 298.480469 89.890625 298.25 89.820312 297.992188 89.820312 C 297.570312 89.820312 297.210938 89.957031 296.898438 90.230469 C 296.59375 90.492188 296.449219 91 296.449219 91.753906 L 296.449219 94.9375 Z M 295.453125 94.9375 "/>
<path style=" stroke:none;fill-rule:nonzero;fill:rgb(0%,0%,0%);fill-opacity:1;" d="M 301.707031 88.023438 L 301.707031 86.890625 L 302.703125 86.890625 L 302.703125 88.023438 Z M 301.707031 94.9375 L 301.707031 89.097656 L 302.703125 89.097656 L 302.703125 94.9375 Z M 301.707031 94.9375 "/>
<path style=" stroke:none;fill-rule:nonzero;fill:rgb(0%,0%,0%);fill-opacity:1;" d="M 304.207031 94.9375 L 304.207031 89.097656 L 305.105469 89.097656 L 305.105469 89.9375 C 305.523438 89.304688 306.140625 88.980469 306.960938 88.980469 C 307.3125 88.980469 307.632812 89.046875 307.917969 89.175781 C 308.21875 89.292969 308.4375 89.460938 308.582031 89.664062 C 308.726562 89.859375 308.828125 90.101562 308.894531 90.386719 C 308.933594 90.570312 308.953125 90.890625 308.953125 91.34375 L 308.953125 94.9375 L 307.957031 94.9375 L 307.957031 91.382812 C 307.957031 90.984375 307.917969 90.679688 307.839844 90.484375 C 307.761719 90.289062 307.625 90.132812 307.429688 90.015625 C 307.234375 89.890625 307.007812 89.820312 306.746094 89.820312 C 306.328125 89.820312 305.964844 89.957031 305.652344 90.230469 C 305.351562 90.492188 305.203125 91 305.203125 91.753906 L 305.203125 94.9375 Z M 304.207031 94.9375 "/>
<path style=" stroke:none;fill-rule:nonzero;fill:rgb(0%,0%,0%);fill-opacity:1;" d="M 310.289062 95.425781 L 311.246094 95.5625 C 311.285156 95.859375 311.394531 96.074219 311.578125 96.207031 C 311.824219 96.386719 312.164062 96.480469 312.59375 96.480469 C 313.046875 96.480469 313.398438 96.386719 313.648438 96.207031 C 313.894531 96.023438 314.0625 95.765625 314.15625 95.445312 C 314.207031 95.234375 314.226562 94.816406 314.214844 94.175781 C 313.785156 94.683594 313.25 94.9375 312.613281 94.9375 C 311.804688 94.9375 311.179688 94.65625 310.738281 94.078125 C 310.308594 93.492188 310.09375 92.796875 310.09375 91.988281 C 310.09375 91.429688 310.191406 90.914062 310.386719 90.445312 C 310.59375 89.976562 310.886719 89.621094 311.265625 89.371094 C 311.640625 89.113281 312.089844 88.980469 312.613281 88.980469 C 313.300781 88.980469 313.867188 89.253906 314.3125 89.800781 L 314.3125 89.097656 L 315.230469 89.097656 L 315.230469 94.136719 C 315.230469 95.046875 315.132812 95.6875 314.9375 96.070312 C 314.753906 96.445312 314.460938 96.742188 314.058594 96.96875 C 313.667969 97.1875 313.179688 97.300781 312.59375 97.300781 C 311.890625 97.300781 311.324219 97.144531 310.894531 96.832031 C 310.476562 96.519531 310.273438 96.050781 310.289062 95.425781 Z M 311.109375 91.910156 C 311.109375 92.679688 311.257812 93.238281 311.558594 93.589844 C 311.855469 93.941406 312.234375 94.117188 312.691406 94.117188 C 313.144531 94.117188 313.53125 93.941406 313.84375 93.589844 C 314.15625 93.238281 314.3125 92.691406 314.3125 91.949219 C 314.3125 91.234375 314.148438 90.695312 313.824219 90.328125 C 313.511719 89.96875 313.132812 89.78125 312.691406 89.78125 C 312.246094 89.78125 311.871094 89.96875 311.558594 90.328125 C 311.257812 90.679688 311.109375 91.207031 311.109375 91.910156 Z M 311.109375 91.910156 "/>
<path style=" stroke:none;fill-rule:nonzero;fill:rgb(0%,0%,0%);fill-opacity:1;" d="M 319.828125 94.9375 L 319.828125 86.890625 L 320.804688 86.890625 L 320.804688 94.9375 Z M 319.828125 94.9375 "/>
<path style=" stroke:none;fill-rule:nonzero;fill:rgb(0%,0%,0%);fill-opacity:1;" d="M 326.15625 94.214844 C 325.789062 94.527344 325.4375 94.75 325.101562 94.878906 C 324.761719 95.007812 324.398438 95.074219 324.007812 95.074219 C 323.367188 95.074219 322.875 94.917969 322.523438 94.605469 C 322.183594 94.292969 322.015625 93.890625 322.015625 93.394531 C 322.015625 93.109375 322.078125 92.847656 322.210938 92.613281 C 322.339844 92.378906 322.507812 92.195312 322.71875 92.046875 C 322.925781 91.90625 323.160156 91.792969 323.421875 91.714844 C 323.617188 91.675781 323.910156 91.632812 324.300781 91.578125 C 325.105469 91.492188 325.699219 91.375 326.078125 91.226562 C 326.078125 91.101562 326.078125 91.011719 326.078125 90.972656 C 326.078125 90.570312 325.984375 90.289062 325.804688 90.132812 C 325.542969 89.898438 325.164062 89.78125 324.671875 89.78125 C 324.203125 89.78125 323.855469 89.867188 323.636719 90.035156 C 323.414062 90.191406 323.25 90.480469 323.148438 90.894531 L 322.191406 90.777344 C 322.269531 90.363281 322.40625 90.03125 322.601562 89.78125 C 322.808594 89.523438 323.101562 89.328125 323.480469 89.195312 C 323.871094 89.054688 324.3125 88.980469 324.808594 88.980469 C 325.316406 88.980469 325.71875 89.039062 326.019531 89.15625 C 326.332031 89.273438 326.558594 89.425781 326.703125 89.605469 C 326.859375 89.777344 326.960938 89.996094 327.015625 90.269531 C 327.054688 90.441406 327.074219 90.738281 327.074219 91.167969 L 327.074219 92.496094 C 327.074219 93.410156 327.09375 93.992188 327.132812 94.234375 C 327.171875 94.484375 327.253906 94.71875 327.386719 94.9375 L 326.351562 94.9375 C 326.246094 94.734375 326.179688 94.488281 326.15625 94.214844 Z M 326.078125 92.007812 C 325.710938 92.15625 325.171875 92.277344 324.457031 92.378906 C 324.050781 92.445312 323.765625 92.515625 323.597656 92.59375 C 323.425781 92.664062 323.296875 92.765625 323.207031 92.90625 C 323.113281 93.054688 323.070312 93.210938 323.070312 93.375 C 323.070312 93.640625 323.167969 93.859375 323.363281 94.039062 C 323.558594 94.210938 323.851562 94.292969 324.242188 94.292969 C 324.617188 94.292969 324.957031 94.210938 325.257812 94.039062 C 325.554688 93.875 325.777344 93.644531 325.921875 93.355469 C 326.023438 93.136719 326.078125 92.808594 326.078125 92.378906 Z M 326.078125 92.007812 "/>
<path style=" stroke:none;fill-rule:nonzero;fill:rgb(0%,0%,0%);fill-opacity:1;" d="M 329.523438 94.9375 L 328.605469 94.9375 L 328.605469 86.890625 L 329.582031 86.890625 L 329.582031 89.761719 C 329.996094 89.242188 330.527344 88.980469 331.183594 88.980469 C 331.542969 88.980469 331.886719 89.054688 332.199219 89.195312 C 332.519531 89.34375 332.789062 89.542969 333 89.800781 C 333.203125 90.0625 333.371094 90.382812 333.488281 90.757812 C 333.605469 91.125 333.664062 91.515625 333.664062 91.929688 C 333.664062 92.9375 333.414062 93.707031 332.921875 94.253906 C 332.421875 94.800781 331.832031 95.074219 331.144531 95.074219 C 330.449219 95.074219 329.914062 94.789062 329.523438 94.214844 Z M 329.503906 91.96875 C 329.503906 92.671875 329.601562 93.179688 329.796875 93.492188 C 330.109375 94 330.523438 94.253906 331.046875 94.253906 C 331.484375 94.253906 331.867188 94.070312 332.179688 93.6875 C 332.492188 93.3125 332.648438 92.75 332.648438 92.007812 C 332.648438 91.257812 332.496094 90.695312 332.199219 90.328125 C 331.894531 89.96875 331.535156 89.78125 331.105469 89.78125 C 330.660156 89.78125 330.285156 89.972656 329.972656 90.347656 C 329.660156 90.726562 329.503906 91.265625 329.503906 91.96875 Z M 329.503906 91.96875 "/>
<path style=" stroke:none;fill-rule:nonzero;fill:rgb(0%,0%,0%);fill-opacity:1;" d="M 338.847656 93.0625 L 339.882812 93.179688 C 339.710938 93.78125 339.402344 94.25 338.964844 94.585938 C 338.535156 94.914062 337.976562 95.074219 337.304688 95.074219 C 336.453125 95.074219 335.78125 94.816406 335.273438 94.292969 C 334.773438 93.761719 334.53125 93.019531 334.53125 92.066406 C 334.53125 91.089844 334.785156 90.335938 335.292969 89.800781 C 335.800781 89.253906 336.453125 88.980469 337.265625 88.980469 C 338.046875 88.980469 338.675781 89.25 339.160156 89.78125 C 339.652344 90.304688 339.902344 91.046875 339.902344 92.007812 C 339.902344 92.078125 339.902344 92.164062 339.902344 92.28125 L 335.546875 92.28125 C 335.585938 92.921875 335.765625 93.410156 336.09375 93.746094 C 336.414062 94.085938 336.824219 94.253906 337.324219 94.253906 C 337.683594 94.253906 337.992188 94.164062 338.242188 93.980469 C 338.5 93.785156 338.699219 93.484375 338.847656 93.0625 Z M 335.605469 91.460938 L 338.867188 91.460938 C 338.828125 90.96875 338.699219 90.597656 338.496094 90.347656 C 338.183594 89.972656 337.773438 89.78125 337.265625 89.78125 C 336.804688 89.78125 336.425781 89.9375 336.113281 90.25 C 335.808594 90.554688 335.644531 90.953125 335.605469 91.460938 Z M 335.605469 91.460938 "/>
<path style=" stroke:none;fill-rule:nonzero;fill:rgb(0%,0%,0%);fill-opacity:1;" d="M 341.101562 94.9375 L 341.101562 86.890625 L 342.078125 86.890625 L 342.078125 94.9375 Z M 341.101562 94.9375 "/>
<path style=" stroke:none;fill-rule:nonzero;fill:rgb(0%,0%,0%);fill-opacity:1;" d="M 343.230469 93.199219 L 344.207031 93.042969 C 344.253906 93.433594 344.40625 93.734375 344.65625 93.941406 C 344.914062 94.152344 345.265625 94.253906 345.710938 94.253906 C 346.164062 94.253906 346.5 94.164062 346.726562 93.980469 C 346.945312 93.800781 347.058594 93.585938 347.058594 93.335938 C 347.058594 93.101562 346.960938 92.925781 346.765625 92.808594 C 346.617188 92.71875 346.28125 92.601562 345.75 92.457031 C 345.015625 92.277344 344.507812 92.121094 344.226562 91.988281 C 343.953125 91.859375 343.742188 91.675781 343.601562 91.441406 C 343.453125 91.207031 343.386719 90.949219 343.386719 90.660156 C 343.386719 90.402344 343.445312 90.164062 343.5625 89.9375 C 343.679688 89.71875 343.839844 89.527344 344.050781 89.371094 C 344.207031 89.269531 344.410156 89.175781 344.675781 89.097656 C 344.949219 89.019531 345.230469 88.980469 345.535156 88.980469 C 345.988281 88.980469 346.382812 89.046875 346.726562 89.175781 C 347.078125 89.308594 347.335938 89.484375 347.507812 89.703125 C 347.671875 89.929688 347.789062 90.226562 347.859375 90.601562 L 346.882812 90.738281 C 346.84375 90.441406 346.710938 90.207031 346.492188 90.035156 C 346.28125 89.867188 345.988281 89.78125 345.613281 89.78125 C 345.152344 89.78125 344.832031 89.859375 344.636719 90.015625 C 344.441406 90.164062 344.34375 90.335938 344.34375 90.542969 C 344.34375 90.675781 344.382812 90.789062 344.460938 90.875 C 344.539062 90.992188 344.664062 91.085938 344.851562 91.148438 C 344.9375 91.1875 345.226562 91.273438 345.710938 91.402344 C 346.414062 91.585938 346.902344 91.734375 347.175781 91.851562 C 347.457031 91.96875 347.683594 92.144531 347.839844 92.378906 C 347.996094 92.601562 348.074219 92.882812 348.074219 93.21875 C 348.074219 93.5625 347.976562 93.875 347.78125 94.15625 C 347.585938 94.445312 347.300781 94.671875 346.941406 94.839844 C 346.589844 94.996094 346.179688 95.074219 345.710938 95.074219 C 344.953125 95.074219 344.371094 94.917969 343.972656 94.605469 C 343.582031 94.28125 343.332031 93.8125 343.230469 93.199219 Z M 343.230469 93.199219 "/>
<path style="fill-rule:nonzero;fill:rgb(100%,100%,100%);fill-opacity:1;stroke-width:1;stroke-linecap:round;stroke-linejoin:round;stroke:rgb(0%,0%,0%);stroke-opacity:1;stroke-miterlimit:10;" d="M 203.9625 82.7 L 278.9625 82.7 L 278.9625 114.2 L 203.9625 114.2 Z M 203.9625 82.7 " transform="matrix(1.25,0,0,1.25,-116.25,-31.25)"/>
<path style=" stroke:none;fill-rule:nonzero;fill:rgb(0%,0%,0%);fill-opacity:1;" d="M 157.945312 86.367188 L 158.941406 86.269531 C 158.988281 86.675781 159.101562 87.007812 159.273438 87.265625 C 159.453125 87.527344 159.726562 87.734375 160.09375 87.890625 C 160.453125 88.046875 160.863281 88.125 161.324219 88.125 C 161.722656 88.125 162.085938 88.066406 162.398438 87.949219 C 162.710938 87.832031 162.945312 87.671875 163.101562 87.460938 C 163.257812 87.242188 163.335938 87.007812 163.335938 86.757812 C 163.335938 86.511719 163.257812 86.296875 163.101562 86.113281 C 162.953125 85.917969 162.714844 85.757812 162.378906 85.625 C 162.167969 85.535156 161.695312 85.40625 160.953125 85.234375 C 160.210938 85.054688 159.6875 84.882812 159.390625 84.726562 C 159.007812 84.53125 158.726562 84.285156 158.53125 83.984375 C 158.34375 83.6875 158.257812 83.347656 158.257812 82.96875 C 158.257812 82.566406 158.363281 82.1875 158.589844 81.835938 C 158.824219 81.484375 159.160156 81.21875 159.605469 81.035156 C 160.042969 80.855469 160.542969 80.761719 161.089844 80.761719 C 161.683594 80.761719 162.210938 80.859375 162.671875 81.054688 C 163.125 81.238281 163.472656 81.519531 163.707031 81.894531 C 163.949219 82.273438 164.085938 82.695312 164.117188 83.164062 L 163.082031 83.242188 C 163.027344 82.734375 162.847656 82.351562 162.535156 82.089844 C 162.222656 81.832031 161.753906 81.699219 161.128906 81.699219 C 160.488281 81.699219 160.019531 81.816406 159.722656 82.050781 C 159.417969 82.285156 159.273438 82.574219 159.273438 82.910156 C 159.273438 83.199219 159.375 83.433594 159.585938 83.613281 C 159.789062 83.808594 160.328125 84.003906 161.1875 84.199219 C 162.054688 84.394531 162.65625 84.566406 162.984375 84.707031 C 163.453125 84.917969 163.792969 85.191406 164.019531 85.527344 C 164.238281 85.855469 164.351562 86.238281 164.351562 86.679688 C 164.351562 87.097656 164.222656 87.5 163.980469 87.890625 C 163.730469 88.269531 163.378906 88.5625 162.925781 88.769531 C 162.464844 88.972656 161.953125 89.082031 161.382812 89.082031 C 160.648438 89.082031 160.039062 88.972656 159.546875 88.769531 C 159.046875 88.550781 158.65625 88.230469 158.375 87.8125 C 158.101562 87.382812 157.953125 86.902344 157.945312 86.367188 Z M 157.945312 86.367188 "/>
<path style=" stroke:none;fill-rule:nonzero;fill:rgb(0%,0%,0%);fill-opacity:1;" d="M 169.511719 88.945312 L 169.511719 88.085938 C 169.050781 88.75 168.4375 89.082031 167.65625 89.082031 C 167.3125 89.082031 166.996094 89.011719 166.699219 88.886719 C 166.394531 88.746094 166.171875 88.574219 166.015625 88.378906 C 165.867188 88.183594 165.769531 87.945312 165.722656 87.65625 C 165.683594 87.460938 165.664062 87.148438 165.664062 86.71875 L 165.664062 83.105469 L 166.640625 83.105469 L 166.640625 86.347656 C 166.640625 86.871094 166.664062 87.214844 166.71875 87.382812 C 166.765625 87.644531 166.894531 87.851562 167.089844 88.007812 C 167.292969 88.152344 167.546875 88.222656 167.851562 88.222656 C 168.148438 88.222656 168.425781 88.152344 168.691406 88.007812 C 168.949219 87.851562 169.128906 87.644531 169.238281 87.382812 C 169.339844 87.125 169.394531 86.738281 169.394531 86.230469 L 169.394531 83.105469 L 170.390625 83.105469 L 170.390625 88.945312 Z M 169.511719 88.945312 "/>
<path style=" stroke:none;fill-rule:nonzero;fill:rgb(0%,0%,0%);fill-opacity:1;" d="M 171.941406 91.171875 L 171.941406 83.105469 L 172.839844 83.105469 L 172.839844 83.867188 C 173.042969 83.570312 173.277344 83.347656 173.542969 83.203125 C 173.816406 83.0625 174.148438 82.988281 174.539062 82.988281 C 175.03125 82.988281 175.464844 83.121094 175.847656 83.378906 C 176.222656 83.628906 176.511719 83.984375 176.707031 84.453125 C 176.902344 84.921875 177 85.429688 177 85.976562 C 177 86.578125 176.886719 87.117188 176.667969 87.597656 C 176.457031 88.082031 176.148438 88.453125 175.75 88.710938 C 175.34375 88.953125 174.914062 89.082031 174.460938 89.082031 C 174.132812 89.082031 173.839844 89.007812 173.582031 88.867188 C 173.316406 88.726562 173.101562 88.550781 172.9375 88.339844 L 172.9375 91.171875 Z M 172.839844 86.054688 C 172.839844 86.8125 172.984375 87.371094 173.289062 87.734375 C 173.601562 88.085938 173.972656 88.261719 174.402344 88.261719 C 174.832031 88.261719 175.203125 88.082031 175.515625 87.714844 C 175.835938 87.339844 176.003906 86.757812 176.003906 85.976562 C 176.003906 85.234375 175.847656 84.683594 175.535156 84.316406 C 175.230469 83.941406 174.871094 83.75 174.441406 83.75 C 174.019531 83.75 173.648438 83.953125 173.328125 84.355469 C 173 84.746094 172.839844 85.3125 172.839844 86.054688 Z M 172.839844 86.054688 "/>
<path style=" stroke:none;fill-rule:nonzero;fill:rgb(0%,0%,0%);fill-opacity:1;" d="M 182.179688 87.070312 L 183.214844 87.1875 C 183.046875 87.789062 182.738281 88.257812 182.296875 88.59375 C 181.867188 88.921875 181.3125 89.082031 180.636719 89.082031 C 179.789062 89.082031 179.113281 88.824219 178.605469 88.300781 C 178.109375 87.769531 177.863281 87.027344 177.863281 86.074219 C 177.863281 85.097656 178.117188 84.34375 178.625 83.808594 C 179.132812 83.261719 179.789062 82.988281 180.597656 82.988281 C 181.378906 82.988281 182.011719 83.257812 182.492188 83.789062 C 182.988281 84.3125 183.234375 85.054688 183.234375 86.015625 C 183.234375 86.082031 183.234375 86.171875 183.234375 86.289062 L 178.878906 86.289062 C 178.917969 86.929688 179.101562 87.417969 179.425781 87.753906 C 179.75 88.09375 180.160156 88.261719 180.65625 88.261719 C 181.019531 88.261719 181.328125 88.171875 181.574219 87.988281 C 181.835938 87.792969 182.035156 87.488281 182.179688 87.070312 Z M 178.9375 85.46875 L 182.199219 85.46875 C 182.160156 84.976562 182.035156 84.605469 181.828125 84.355469 C 181.515625 83.980469 181.105469 83.789062 180.597656 83.789062 C 180.140625 83.789062 179.757812 83.945312 179.445312 84.257812 C 179.144531 84.558594 178.976562 84.960938 178.9375 85.46875 Z M 178.9375 85.46875 "/>
<path style=" stroke:none;fill-rule:nonzero;fill:rgb(0%,0%,0%);fill-opacity:1;" d="M 184.433594 88.945312 L 184.433594 83.105469 L 185.332031 83.105469 L 185.332031 84.003906 C 185.554688 83.589844 185.761719 83.316406 185.957031 83.183594 C 186.152344 83.054688 186.367188 82.988281 186.601562 82.988281 C 186.925781 82.988281 187.265625 83.09375 187.617188 83.300781 L 187.265625 84.21875 C 187.03125 84.078125 186.789062 84.003906 186.542969 84.003906 C 186.335938 84.003906 186.140625 84.070312 185.957031 84.199219 C 185.789062 84.332031 185.664062 84.511719 185.585938 84.746094 C 185.480469 85.097656 185.429688 85.484375 185.429688 85.898438 L 185.429688 88.945312 Z M 184.433594 88.945312 "/>
<path style=" stroke:none;fill-rule:nonzero;fill:rgb(0%,0%,0%);fill-opacity:1;" d="M 189.820312 88.945312 L 187.59375 83.105469 L 188.648438 83.105469 L 189.898438 86.601562 C 190.027344 86.980469 190.152344 87.371094 190.269531 87.773438 C 190.359375 87.476562 190.484375 87.109375 190.640625 86.679688 L 191.929688 83.105469 L 192.945312 83.105469 L 190.738281 88.945312 Z M 189.820312 88.945312 "/>
<path style=" stroke:none;fill-rule:nonzero;fill:rgb(0%,0%,0%);fill-opacity:1;" d="M 193.824219 82.03125 L 193.824219 80.898438 L 194.820312 80.898438 L 194.820312 82.03125 Z M 193.824219 88.945312 L 193.824219 83.105469 L 194.820312 83.105469 L 194.820312 88.945312 Z M 193.824219 88.945312 "/>
<path style=" stroke:none;fill-rule:nonzero;fill:rgb(0%,0%,0%);fill-opacity:1;" d="M 195.933594 87.207031 L 196.910156 87.050781 C 196.960938 87.441406 197.113281 87.742188 197.359375 87.949219 C 197.621094 88.160156 197.972656 88.261719 198.414062 88.261719 C 198.871094 88.261719 199.207031 88.171875 199.429688 87.988281 C 199.652344 87.808594 199.761719 87.59375 199.761719 87.34375 C 199.761719 87.109375 199.664062 86.933594 199.46875 86.816406 C 199.324219 86.726562 198.988281 86.609375 198.453125 86.464844 C 197.722656 86.285156 197.214844 86.128906 196.929688 85.996094 C 196.65625 85.867188 196.449219 85.683594 196.304688 85.449219 C 196.160156 85.214844 196.089844 84.957031 196.089844 84.667969 C 196.089844 84.410156 196.148438 84.167969 196.265625 83.945312 C 196.382812 83.726562 196.546875 83.535156 196.753906 83.378906 C 196.910156 83.277344 197.117188 83.183594 197.378906 83.105469 C 197.652344 83.027344 197.9375 82.988281 198.238281 82.988281 C 198.695312 82.988281 199.089844 83.054688 199.429688 83.183594 C 199.78125 83.316406 200.042969 83.492188 200.210938 83.710938 C 200.378906 83.933594 200.496094 84.234375 200.5625 84.609375 L 199.585938 84.746094 C 199.546875 84.449219 199.417969 84.214844 199.195312 84.042969 C 198.988281 83.875 198.695312 83.789062 198.316406 83.789062 C 197.859375 83.789062 197.535156 83.867188 197.339844 84.023438 C 197.144531 84.167969 197.046875 84.34375 197.046875 84.550781 C 197.046875 84.683594 197.085938 84.792969 197.164062 84.882812 C 197.242188 85 197.371094 85.09375 197.554688 85.15625 C 197.644531 85.195312 197.933594 85.28125 198.414062 85.410156 C 199.117188 85.59375 199.605469 85.742188 199.878906 85.859375 C 200.164062 85.976562 200.386719 86.152344 200.542969 86.386719 C 200.699219 86.609375 200.777344 86.890625 200.777344 87.226562 C 200.777344 87.566406 200.679688 87.878906 200.484375 88.164062 C 200.289062 88.453125 200.007812 88.679688 199.644531 88.847656 C 199.292969 89.003906 198.882812 89.082031 198.414062 89.082031 C 197.660156 89.082031 197.078125 88.925781 196.675781 88.613281 C 196.285156 88.289062 196.039062 87.820312 195.933594 87.207031 Z M 195.933594 87.207031 "/>
<path style=" stroke:none;fill-rule:nonzero;fill:rgb(0%,0%,0%);fill-opacity:1;" d="M 205.933594 87.070312 L 206.96875 87.1875 C 206.800781 87.789062 206.492188 88.257812 206.050781 88.59375 C 205.621094 88.921875 205.066406 89.082031 204.390625 89.082031 C 203.542969 89.082031 202.867188 88.824219 202.359375 88.300781 C 201.863281 87.769531 201.617188 87.027344 201.617188 86.074219 C 201.617188 85.097656 201.871094 84.34375 202.378906 83.808594 C 202.886719 83.261719 203.542969 82.988281 204.351562 82.988281 C 205.132812 82.988281 205.765625 83.257812 206.246094 83.789062 C 206.742188 84.3125 206.988281 85.054688 206.988281 86.015625 C 206.988281 86.082031 206.988281 86.171875 206.988281 86.289062 L 202.632812 86.289062 C 202.671875 86.929688 202.855469 87.417969 203.179688 87.753906 C 203.503906 88.09375 203.914062 88.261719 204.410156 88.261719 C 204.773438 88.261719 205.082031 88.171875 205.328125 87.988281 C 205.589844 87.792969 205.789062 87.488281 205.933594 87.070312 Z M 202.691406 85.46875 L 205.953125 85.46875 C 205.914062 84.976562 205.789062 84.605469 205.582031 84.355469 C 205.269531 83.980469 204.859375 83.789062 204.351562 83.789062 C 203.894531 83.789062 203.511719 83.945312 203.199219 84.257812 C 202.898438 84.558594 202.730469 84.960938 202.691406 85.46875 Z M 202.691406 85.46875 "/>
<path style=" stroke:none;fill-rule:nonzero;fill:rgb(0%,0%,0%);fill-opacity:1;" d="M 211.996094 88.945312 L 211.996094 88.203125 C 211.617188 88.789062 211.070312 89.082031 210.355469 89.082031 C 209.898438 89.082031 209.476562 88.949219 209.085938 88.691406 C 208.695312 88.433594 208.386719 88.074219 208.167969 87.617188 C 207.957031 87.164062 207.855469 86.636719 207.855469 86.035156 C 207.855469 85.449219 207.953125 84.921875 208.148438 84.453125 C 208.34375 83.972656 208.628906 83.609375 209.007812 83.359375 C 209.398438 83.113281 209.832031 82.988281 210.316406 82.988281 C 210.667969 82.988281 210.980469 83.0625 211.253906 83.203125 C 211.527344 83.347656 211.746094 83.542969 211.917969 83.789062 L 211.917969 80.898438 L 212.914062 80.898438 L 212.914062 88.945312 Z M 208.871094 86.035156 C 208.871094 86.777344 209.027344 87.339844 209.339844 87.714844 C 209.652344 88.082031 210.023438 88.261719 210.453125 88.261719 C 210.882812 88.261719 211.246094 88.085938 211.546875 87.734375 C 211.859375 87.382812 212.015625 86.84375 212.015625 86.113281 C 212.015625 85.320312 211.859375 84.734375 211.546875 84.355469 C 211.234375 83.980469 210.855469 83.789062 210.414062 83.789062 C 209.96875 83.789062 209.597656 83.972656 209.300781 84.335938 C 209.011719 84.703125 208.871094 85.269531 208.871094 86.035156 Z M 208.871094 86.035156 "/>
<path style=" stroke:none;fill-rule:nonzero;fill:rgb(0%,0%,0%);fill-opacity:1;" d="M 166.285156 101.8125 L 166.285156 93.765625 L 167.261719 93.765625 L 167.261719 101.8125 Z M 166.285156 101.8125 "/>
<path style=" stroke:none;fill-rule:nonzero;fill:rgb(0%,0%,0%);fill-opacity:1;" d="M 172.789062 99.9375 L 173.824219 100.054688 C 173.65625 100.65625 173.347656 101.125 172.90625 101.460938 C 172.476562 101.789062 171.921875 101.949219 171.246094 101.949219 C 170.398438 101.949219 169.722656 101.691406 169.214844 101.167969 C 168.71875 100.636719 168.472656 99.894531 168.472656 98.941406 C 168.472656 97.964844 168.726562 97.210938 169.234375 96.675781 C 169.742188 96.128906 170.398438 95.855469 171.207031 95.855469 C 171.988281 95.855469 172.621094 96.125 173.101562 96.65625 C 173.597656 97.179688 173.84375 97.921875 173.84375 98.882812 C 173.84375 98.953125 173.84375 99.039062 173.84375 99.15625 L 169.488281 99.15625 C 169.527344 99.796875 169.710938 100.285156 170.035156 100.621094 C 170.359375 100.960938 170.769531 101.128906 171.265625 101.128906 C 171.628906 101.128906 171.9375 101.039062 172.183594 100.855469 C 172.445312 100.660156 172.644531 100.359375 172.789062 99.9375 Z M 169.546875 98.335938 L 172.808594 98.335938 C 172.769531 97.84375 172.644531 97.472656 172.4375 97.222656 C 172.125 96.847656 171.714844 96.65625 171.207031 96.65625 C 170.75 96.65625 170.367188 96.8125 170.054688 97.125 C 169.753906 97.429688 169.585938 97.828125 169.546875 98.335938 Z M 169.546875 98.335938 "/>
<path style=" stroke:none;fill-rule:nonzero;fill:rgb(0%,0%,0%);fill-opacity:1;" d="M 178.871094 101.089844 C 178.503906 101.402344 178.152344 101.625 177.816406 101.753906 C 177.476562 101.882812 177.113281 101.949219 176.722656 101.949219 C 176.082031 101.949219 175.589844 101.792969 175.238281 101.480469 C 174.898438 101.167969 174.730469 100.765625 174.730469 100.269531 C 174.730469 99.984375 174.792969 99.722656 174.925781 99.488281 C 175.054688 99.253906 175.222656 99.070312 175.433594 98.921875 C 175.640625 98.78125 175.875 98.667969 176.136719 98.589844 C 176.332031 98.550781 176.625 98.507812 177.015625 98.453125 C 177.820312 98.367188 178.414062 98.25 178.792969 98.101562 C 178.792969 97.976562 178.792969 97.886719 178.792969 97.847656 C 178.792969 97.445312 178.699219 97.164062 178.519531 97.007812 C 178.257812 96.773438 177.878906 96.65625 177.386719 96.65625 C 176.917969 96.65625 176.570312 96.742188 176.351562 96.910156 C 176.128906 97.066406 175.964844 97.355469 175.863281 97.769531 L 174.90625 97.652344 C 174.984375 97.238281 175.121094 96.90625 175.316406 96.65625 C 175.523438 96.398438 175.816406 96.203125 176.195312 96.070312 C 176.585938 95.929688 177.027344 95.855469 177.523438 95.855469 C 178.03125 95.855469 178.433594 95.914062 178.734375 96.03125 C 179.046875 96.148438 179.273438 96.300781 179.417969 96.480469 C 179.574219 96.652344 179.675781 96.871094 179.730469 97.144531 C 179.769531 97.316406 179.789062 97.613281 179.789062 98.042969 L 179.789062 99.371094 C 179.789062 100.285156 179.808594 100.867188 179.847656 101.109375 C 179.886719 101.359375 179.96875 101.59375 180.101562 101.8125 L 179.066406 101.8125 C 178.960938 101.609375 178.894531 101.363281 178.871094 101.089844 Z M 178.792969 98.882812 C 178.425781 99.03125 177.886719 99.152344 177.171875 99.253906 C 176.765625 99.320312 176.480469 99.390625 176.3125 99.46875 C 176.140625 99.539062 176.011719 99.640625 175.921875 99.78125 C 175.828125 99.929688 175.785156 100.085938 175.785156 100.25 C 175.785156 100.515625 175.882812 100.734375 176.078125 100.914062 C 176.273438 101.085938 176.566406 101.167969 176.957031 101.167969 C 177.332031 101.167969 177.671875 101.085938 177.972656 100.914062 C 178.269531 100.75 178.492188 100.519531 178.636719 100.230469 C 178.738281 100.011719 178.792969 99.683594 178.792969 99.253906 Z M 178.792969 98.882812 "/>
<path style=" stroke:none;fill-rule:nonzero;fill:rgb(0%,0%,0%);fill-opacity:1;" d="M 181.300781 101.8125 L 181.300781 95.972656 L 182.199219 95.972656 L 182.199219 96.871094 C 182.417969 96.457031 182.628906 96.183594 182.824219 96.050781 C 183.019531 95.921875 183.234375 95.855469 183.46875 95.855469 C 183.789062 95.855469 184.132812 95.960938 184.484375 96.167969 L 184.132812 97.085938 C 183.898438 96.945312 183.652344 96.871094 183.410156 96.871094 C 183.199219 96.871094 183.003906 96.9375 182.824219 97.066406 C 182.652344 97.199219 182.53125 97.378906 182.453125 97.613281 C 182.34375 97.964844 182.296875 98.351562 182.296875 98.765625 L 182.296875 101.8125 Z M 181.300781 101.8125 "/>
<path style=" stroke:none;fill-rule:nonzero;fill:rgb(0%,0%,0%);fill-opacity:1;" d="M 185.066406 101.8125 L 185.066406 95.972656 L 185.964844 95.972656 L 185.964844 96.8125 C 186.378906 96.179688 187 95.855469 187.820312 95.855469 C 188.171875 95.855469 188.488281 95.921875 188.777344 96.050781 C 189.074219 96.167969 189.296875 96.335938 189.441406 96.539062 C 189.582031 96.734375 189.6875 96.976562 189.753906 97.261719 C 189.792969 97.445312 189.8125 97.765625 189.8125 98.21875 L 189.8125 101.8125 L 188.816406 101.8125 L 188.816406 98.257812 C 188.816406 97.859375 188.777344 97.554688 188.699219 97.359375 C 188.621094 97.164062 188.484375 97.007812 188.289062 96.890625 C 188.09375 96.765625 187.863281 96.695312 187.605469 96.695312 C 187.1875 96.695312 186.824219 96.832031 186.511719 97.105469 C 186.210938 97.367188 186.0625 97.875 186.0625 98.628906 L 186.0625 101.8125 Z M 185.066406 101.8125 "/>
<path style=" stroke:none;fill-rule:nonzero;fill:rgb(0%,0%,0%);fill-opacity:1;" d="M 191.324219 94.898438 L 191.324219 93.765625 L 192.320312 93.765625 L 192.320312 94.898438 Z M 191.324219 101.8125 L 191.324219 95.972656 L 192.320312 95.972656 L 192.320312 101.8125 Z M 191.324219 101.8125 "/>
<path style=" stroke:none;fill-rule:nonzero;fill:rgb(0%,0%,0%);fill-opacity:1;" d="M 193.824219 101.8125 L 193.824219 95.972656 L 194.722656 95.972656 L 194.722656 96.8125 C 195.136719 96.179688 195.757812 95.855469 196.578125 95.855469 C 196.929688 95.855469 197.246094 95.921875 197.535156 96.050781 C 197.832031 96.167969 198.050781 96.335938 198.199219 96.539062 C 198.339844 96.734375 198.441406 96.976562 198.511719 97.261719 C 198.550781 97.445312 198.570312 97.765625 198.570312 98.21875 L 198.570312 101.8125 L 197.574219 101.8125 L 197.574219 98.257812 C 197.574219 97.859375 197.535156 97.554688 197.457031 97.359375 C 197.378906 97.164062 197.242188 97.007812 197.046875 96.890625 C 196.851562 96.765625 196.621094 96.695312 196.363281 96.695312 C 195.941406 96.695312 195.582031 96.832031 195.269531 97.105469 C 194.964844 97.367188 194.820312 97.875 194.820312 98.628906 L 194.820312 101.8125 Z M 193.824219 101.8125 "/>
<path style=" stroke:none;fill-rule:nonzero;fill:rgb(0%,0%,0%);fill-opacity:1;" d="M 199.90625 102.300781 L 200.863281 102.4375 C 200.902344 102.734375 201.007812 102.949219 201.195312 103.082031 C 201.4375 103.261719 201.78125 103.355469 202.210938 103.355469 C 202.664062 103.355469 203.015625 103.261719 203.265625 103.082031 C 203.507812 102.898438 203.679688 102.640625 203.773438 102.320312 C 203.820312 102.109375 203.839844 101.691406 203.832031 101.050781 C 203.402344 101.558594 202.863281 101.8125 202.230469 101.8125 C 201.417969 101.8125 200.792969 101.53125 200.355469 100.953125 C 199.925781 100.367188 199.710938 99.671875 199.710938 98.863281 C 199.710938 98.304688 199.808594 97.789062 200.003906 97.320312 C 200.207031 96.851562 200.5 96.496094 200.882812 96.246094 C 201.257812 95.988281 201.707031 95.855469 202.230469 95.855469 C 202.917969 95.855469 203.484375 96.128906 203.929688 96.675781 L 203.929688 95.972656 L 204.847656 95.972656 L 204.847656 101.011719 C 204.847656 101.921875 204.75 102.5625 204.554688 102.945312 C 204.367188 103.320312 204.074219 103.617188 203.675781 103.84375 C 203.285156 104.0625 202.796875 104.175781 202.210938 104.175781 C 201.507812 104.175781 200.941406 104.019531 200.511719 103.707031 C 200.089844 103.394531 199.890625 102.925781 199.90625 102.300781 Z M 200.726562 98.785156 C 200.726562 99.554688 200.871094 100.113281 201.175781 100.464844 C 201.472656 100.816406 201.847656 100.992188 202.308594 100.992188 C 202.761719 100.992188 203.148438 100.816406 203.460938 100.464844 C 203.773438 100.113281 203.929688 99.566406 203.929688 98.824219 C 203.929688 98.109375 203.761719 97.570312 203.441406 97.203125 C 203.128906 96.84375 202.746094 96.65625 202.308594 96.65625 C 201.863281 96.65625 201.488281 96.84375 201.175781 97.203125 C 200.871094 97.554688 200.726562 98.082031 200.726562 98.785156 Z M 200.726562 98.785156 "/>
<path style="fill-rule:nonzero;fill:rgb(100%,100%,100%);fill-opacity:1;stroke-width:1;stroke-linecap:round;stroke-linejoin:round;stroke:rgb(0%,0%,0%);stroke-opacity:1;stroke-miterlimit:10;" d="M 203.9625 129.5 L 278.9625 129.5 L 278.9625 161 L 203.9625 161 Z M 203.9625 129.5 " transform="matrix(1.25,0,0,1.25,-116.25,-31.25)"/>
<path style=" stroke:none;fill-rule:nonzero;fill:rgb(0%,0%,0%);fill-opacity:1;" d="M 171.097656 153.4375 L 171.097656 145.390625 L 172.699219 145.390625 L 174.59375 151.09375 C 174.773438 151.617188 174.90625 152.011719 174.984375 152.285156 C 175.070312 151.988281 175.21875 151.558594 175.414062 150.996094 L 177.347656 145.390625 L 178.773438 145.390625 L 178.773438 153.4375 L 177.757812 153.4375 L 177.757812 146.699219 L 175.414062 153.4375 L 174.457031 153.4375 L 172.113281 146.582031 L 172.113281 153.4375 Z M 171.097656 153.4375 "/>
<path style=" stroke:none;fill-rule:nonzero;fill:rgb(0%,0%,0%);fill-opacity:1;" d="M 180 150.527344 C 180 149.449219 180.296875 148.648438 180.898438 148.125 C 181.40625 147.695312 182.015625 147.480469 182.734375 147.480469 C 183.539062 147.480469 184.199219 147.742188 184.707031 148.261719 C 185.214844 148.785156 185.46875 149.507812 185.46875 150.429688 C 185.46875 151.1875 185.351562 151.777344 185.117188 152.207031 C 184.894531 152.636719 184.570312 152.976562 184.140625 153.222656 C 183.710938 153.457031 183.242188 153.574219 182.734375 153.574219 C 181.914062 153.574219 181.25 153.316406 180.742188 152.792969 C 180.246094 152.261719 180 151.503906 180 150.527344 Z M 181.015625 150.527344 C 181.015625 151.269531 181.175781 151.832031 181.503906 152.207031 C 181.828125 152.574219 182.238281 152.753906 182.734375 152.753906 C 183.226562 152.753906 183.636719 152.574219 183.964844 152.207031 C 184.289062 151.832031 184.453125 151.257812 184.453125 150.488281 C 184.453125 149.773438 184.289062 149.226562 183.964844 148.847656 C 183.636719 148.472656 183.226562 148.28125 182.734375 148.28125 C 182.238281 148.28125 181.828125 148.472656 181.503906 148.847656 C 181.175781 149.214844 181.015625 149.773438 181.015625 150.527344 Z M 181.015625 150.527344 "/>
<path style=" stroke:none;fill-rule:nonzero;fill:rgb(0%,0%,0%);fill-opacity:1;" d="M 190.417969 153.4375 L 190.417969 152.695312 C 190.035156 153.28125 189.488281 153.574219 188.777344 153.574219 C 188.316406 153.574219 187.898438 153.441406 187.507812 153.183594 C 187.117188 152.925781 186.808594 152.570312 186.589844 152.109375 C 186.378906 151.65625 186.277344 151.128906 186.277344 150.527344 C 186.277344 149.941406 186.375 149.414062 186.570312 148.945312 C 186.765625 148.46875 187.046875 148.101562 187.429688 147.851562 C 187.820312 147.609375 188.253906 147.480469 188.738281 147.480469 C 189.089844 147.480469 189.402344 147.554688 189.675781 147.695312 C 189.949219 147.84375 190.167969 148.039062 190.339844 148.28125 L 190.339844 145.390625 L 191.335938 145.390625 L 191.335938 153.4375 Z M 187.292969 150.527344 C 187.292969 151.269531 187.449219 151.832031 187.761719 152.207031 C 188.074219 152.574219 188.445312 152.753906 188.875 152.753906 C 189.304688 152.753906 189.664062 152.578125 189.96875 152.226562 C 190.28125 151.875 190.4375 151.335938 190.4375 150.605469 C 190.4375 149.8125 190.28125 149.226562 189.96875 148.847656 C 189.65625 148.472656 189.273438 148.28125 188.835938 148.28125 C 188.390625 148.28125 188.019531 148.46875 187.722656 148.828125 C 187.433594 149.195312 187.292969 149.761719 187.292969 150.527344 Z M 187.292969 150.527344 "/>
<path style=" stroke:none;fill-rule:nonzero;fill:rgb(0%,0%,0%);fill-opacity:1;" d="M 196.871094 151.5625 L 197.90625 151.679688 C 197.734375 152.28125 197.425781 152.75 196.988281 153.085938 C 196.558594 153.414062 196 153.574219 195.328125 153.574219 C 194.476562 153.574219 193.804688 153.316406 193.296875 152.792969 C 192.796875 152.261719 192.554688 151.519531 192.554688 150.566406 C 192.554688 149.589844 192.808594 148.835938 193.316406 148.300781 C 193.824219 147.753906 194.476562 147.480469 195.289062 147.480469 C 196.070312 147.480469 196.699219 147.75 197.183594 148.28125 C 197.675781 148.804688 197.925781 149.546875 197.925781 150.507812 C 197.925781 150.578125 197.925781 150.664062 197.925781 150.78125 L 193.570312 150.78125 C 193.609375 151.421875 193.789062 151.910156 194.117188 152.246094 C 194.4375 152.585938 194.847656 152.753906 195.347656 152.753906 C 195.707031 152.753906 196.015625 152.664062 196.265625 152.480469 C 196.523438 152.285156 196.722656 151.984375 196.871094 151.5625 Z M 193.628906 149.960938 L 196.890625 149.960938 C 196.851562 149.46875 196.722656 149.097656 196.519531 148.847656 C 196.207031 148.472656 195.796875 148.28125 195.289062 148.28125 C 194.828125 148.28125 194.449219 148.4375 194.136719 148.75 C 193.832031 149.054688 193.667969 149.453125 193.628906 149.960938 Z M 193.628906 149.960938 "/>
<path style=" stroke:none;fill-rule:nonzero;fill:rgb(0%,0%,0%);fill-opacity:1;" d="M 199.125 153.4375 L 199.125 145.390625 L 200.101562 145.390625 L 200.101562 153.4375 Z M 199.125 153.4375 "/>
<path style="fill-rule:nonzero;fill:rgb(100%,100%,100%);fill-opacity:1;stroke-width:1;stroke-linecap:round;stroke-linejoin:round;stroke:rgb(0%,0%,0%);stroke-opacity:1;stroke-miterlimit:10;" d="M 305.2 129.5 L 380.2 129.5 L 380.2 161 L 305.2 161 Z M 305.2 129.5 " transform="matrix(1.25,0,0,1.25,-116.25,-31.25)"/>
<path style=" stroke:none;fill-rule:nonzero;fill:rgb(0%,0%,0%);fill-opacity:1;" d="M 295.785156 149.511719 C 295.785156 148.183594 296.140625 147.144531 296.859375 146.386719 C 297.574219 145.621094 298.5 145.234375 299.632812 145.234375 C 300.375 145.234375 301.042969 145.421875 301.644531 145.78125 C 302.242188 146.132812 302.699219 146.632812 303.011719 147.265625 C 303.324219 147.90625 303.480469 148.625 303.480469 149.414062 C 303.480469 150.234375 303.316406 150.972656 302.992188 151.621094 C 302.664062 152.261719 302.195312 152.75 301.585938 153.085938 C 300.984375 153.414062 300.335938 153.574219 299.632812 153.574219 C 298.875 153.574219 298.199219 153.394531 297.601562 153.027344 C 297 152.664062 296.546875 152.164062 296.234375 151.523438 C 295.933594 150.890625 295.785156 150.214844 295.785156 149.511719 Z M 296.878906 149.53125 C 296.878906 150.507812 297.136719 151.28125 297.660156 151.835938 C 298.179688 152.382812 298.835938 152.65625 299.632812 152.65625 C 300.425781 152.65625 301.082031 152.378906 301.605469 151.816406 C 302.125 151.257812 302.386719 150.460938 302.386719 149.414062 C 302.386719 148.765625 302.273438 148.199219 302.054688 147.714844 C 301.832031 147.222656 301.507812 146.835938 301.078125 146.5625 C 300.648438 146.289062 300.171875 146.152344 299.652344 146.152344 C 298.894531 146.152344 298.246094 146.414062 297.699219 146.933594 C 297.152344 147.457031 296.878906 148.320312 296.878906 149.53125 Z M 296.878906 149.53125 "/>
<path style=" stroke:none;fill-rule:nonzero;fill:rgb(0%,0%,0%);fill-opacity:1;" d="M 308.558594 153.4375 L 308.558594 152.578125 C 308.101562 153.242188 307.484375 153.574219 306.703125 153.574219 C 306.363281 153.574219 306.042969 153.507812 305.746094 153.378906 C 305.445312 153.238281 305.21875 153.066406 305.0625 152.871094 C 304.917969 152.675781 304.820312 152.4375 304.769531 152.148438 C 304.730469 151.953125 304.710938 151.640625 304.710938 151.210938 L 304.710938 147.597656 L 305.6875 147.597656 L 305.6875 150.839844 C 305.6875 151.363281 305.710938 151.710938 305.765625 151.875 C 305.816406 152.140625 305.941406 152.34375 306.136719 152.5 C 306.34375 152.648438 306.597656 152.714844 306.898438 152.714844 C 307.195312 152.714844 307.476562 152.648438 307.738281 152.5 C 307.996094 152.34375 308.179688 152.140625 308.285156 151.875 C 308.386719 151.617188 308.441406 151.230469 308.441406 150.722656 L 308.441406 147.597656 L 309.4375 147.597656 L 309.4375 153.4375 Z M 308.558594 153.4375 "/>
<path style=" stroke:none;fill-rule:nonzero;fill:rgb(0%,0%,0%);fill-opacity:1;" d="M 313.152344 152.558594 L 313.289062 153.417969 C 313 153.480469 312.75 153.515625 312.546875 153.515625 C 312.179688 153.515625 311.902344 153.457031 311.707031 153.339844 C 311.511719 153.222656 311.363281 153.078125 311.277344 152.890625 C 311.199219 152.710938 311.160156 152.324219 311.160156 151.738281 L 311.160156 148.378906 L 310.4375 148.378906 L 310.4375 147.597656 L 311.160156 147.597656 L 311.160156 146.152344 L 312.15625 145.566406 L 312.15625 147.597656 L 313.152344 147.597656 L 313.152344 148.378906 L 312.15625 148.378906 L 312.15625 151.777344 C 312.15625 152.066406 312.164062 152.246094 312.195312 152.324219 C 312.234375 152.402344 312.292969 152.46875 312.371094 152.519531 C 312.449219 152.574219 312.554688 152.597656 312.703125 152.597656 C 312.820312 152.597656 312.964844 152.585938 313.152344 152.558594 Z M 313.152344 152.558594 "/>
<path style=" stroke:none;fill-rule:nonzero;fill:rgb(0%,0%,0%);fill-opacity:1;" d="M 314.109375 155.664062 L 314.109375 147.597656 L 315.007812 147.597656 L 315.007812 148.359375 C 315.214844 148.0625 315.449219 147.84375 315.710938 147.695312 C 315.984375 147.554688 316.316406 147.480469 316.707031 147.480469 C 317.199219 147.480469 317.636719 147.613281 318.015625 147.871094 C 318.390625 148.121094 318.679688 148.476562 318.875 148.945312 C 319.070312 149.414062 319.167969 149.921875 319.167969 150.46875 C 319.167969 151.070312 319.054688 151.609375 318.835938 152.089844 C 318.625 152.574219 318.320312 152.945312 317.917969 153.203125 C 317.511719 153.445312 317.082031 153.574219 316.628906 153.574219 C 316.300781 153.574219 316.007812 153.5 315.75 153.359375 C 315.488281 153.21875 315.273438 153.042969 315.105469 152.832031 L 315.105469 155.664062 Z M 315.007812 150.546875 C 315.007812 151.304688 315.15625 151.867188 315.457031 152.226562 C 315.769531 152.578125 316.140625 152.753906 316.570312 152.753906 C 317 152.753906 317.371094 152.574219 317.683594 152.207031 C 318.007812 151.832031 318.171875 151.25 318.171875 150.46875 C 318.171875 149.726562 318.015625 149.175781 317.703125 148.808594 C 317.402344 148.433594 317.039062 148.242188 316.609375 148.242188 C 316.191406 148.242188 315.820312 148.445312 315.496094 148.847656 C 315.167969 149.238281 315.007812 149.804688 315.007812 150.546875 Z M 315.007812 150.546875 "/>
<path style=" stroke:none;fill-rule:nonzero;fill:rgb(0%,0%,0%);fill-opacity:1;" d="M 324.191406 153.4375 L 324.191406 152.578125 C 323.730469 153.242188 323.117188 153.574219 322.335938 153.574219 C 321.992188 153.574219 321.675781 153.507812 321.378906 153.378906 C 321.074219 153.238281 320.851562 153.066406 320.695312 152.871094 C 320.546875 152.675781 320.449219 152.4375 320.402344 152.148438 C 320.363281 151.953125 320.34375 151.640625 320.34375 151.210938 L 320.34375 147.597656 L 321.320312 147.597656 L 321.320312 150.839844 C 321.320312 151.363281 321.34375 151.710938 321.398438 151.875 C 321.445312 152.140625 321.574219 152.34375 321.769531 152.5 C 321.972656 152.648438 322.226562 152.714844 322.53125 152.714844 C 322.828125 152.714844 323.105469 152.648438 323.371094 152.5 C 323.628906 152.34375 323.808594 152.140625 323.917969 151.875 C 324.019531 151.617188 324.074219 151.230469 324.074219 150.722656 L 324.074219 147.597656 L 325.070312 147.597656 L 325.070312 153.4375 Z M 324.191406 153.4375 "/>
<path style=" stroke:none;fill-rule:nonzero;fill:rgb(0%,0%,0%);fill-opacity:1;" d="M 328.78125 152.558594 L 328.917969 153.417969 C 328.632812 153.480469 328.382812 153.515625 328.175781 153.515625 C 327.8125 153.515625 327.53125 153.457031 327.335938 153.339844 C 327.140625 153.222656 326.996094 153.078125 326.90625 152.890625 C 326.828125 152.710938 326.789062 152.324219 326.789062 151.738281 L 326.789062 148.378906 L 326.066406 148.378906 L 326.066406 147.597656 L 326.789062 147.597656 L 326.789062 146.152344 L 327.785156 145.566406 L 327.785156 147.597656 L 328.78125 147.597656 L 328.78125 148.378906 L 327.785156 148.378906 L 327.785156 151.777344 C 327.785156 152.066406 327.796875 152.246094 327.824219 152.324219 C 327.863281 152.402344 327.921875 152.46875 328 152.519531 C 328.078125 152.574219 328.1875 152.597656 328.332031 152.597656 C 328.449219 152.597656 328.597656 152.585938 328.78125 152.558594 Z M 328.78125 152.558594 "/>
<path style="fill:none;stroke-width:1;stroke-linecap:round;stroke-linejoin:miter;stroke:rgb(0%,0%,0%);stroke-opacity:1;stroke-miterlimit:10;" d="M 305.2 98.45 L 284.8625 98.45 " transform="matrix(1.25,0,0,1.25,-116.25,-31.25)"/>
<path style="fill:none;stroke-width:1;stroke-linecap:butt;stroke-linejoin:miter;stroke:rgb(0%,0%,0%);stroke-opacity:1;stroke-miterlimit:10;" d="M 280.8625 98.45 L 284.8625 98.45 M 284.8625 99.95 L 280.8625 98.45 L 284.8625 96.95 " transform="matrix(1.25,0,0,1.25,-116.25,-31.25)"/>
<path style="fill:none;stroke-width:1;stroke-linecap:round;stroke-linejoin:miter;stroke:rgb(0%,0%,0%);stroke-opacity:1;stroke-miterlimit:10;" d="M 241.4625 114.2 L 241.4625 123.6 " transform="matrix(1.25,0,0,1.25,-116.25,-31.25)"/>
<path style="fill:none;stroke-width:1;stroke-linecap:butt;stroke-linejoin:miter;stroke:rgb(0%,0%,0%);stroke-opacity:1;stroke-miterlimit:10;" d="M 241.4625 127.6 L 241.4625 123.6 M 242.9625 123.6 L 241.4625 127.6 L 239.9625 123.6 " transform="matrix(1.25,0,0,1.25,-116.25,-31.25)"/>
<path style="fill:none;stroke-width:1;stroke-linecap:round;stroke-linejoin:miter;stroke:rgb(0%,0%,0%);stroke-opacity:1;stroke-miterlimit:10;" d="M 169 145.25 L 198.0625 145.25 " transform="matrix(1.25,0,0,1.25,-116.25,-31.25)"/>
<path style="fill:none;stroke-width:1;stroke-linecap:butt;stroke-linejoin:miter;stroke:rgb(0%,0%,0%);stroke-opacity:1;stroke-miterlimit:10;" d="M 202.0625 145.25 L 198.0625 145.25 M 198.0625 143.75 L 202.0625 145.25 L 198.0625 146.75 " transform="matrix(1.25,0,0,1.25,-116.25,-31.25)"/>
<path style="fill-rule:nonzero;fill:rgb(69.803922%,85.098039%,100%);fill-opacity:1;stroke-width:1;stroke-linecap:round;stroke-linejoin:round;stroke:rgb(0%,0%,0%);stroke-opacity:1;stroke-miterlimit:10;" d="M 203.4 26.4 L 278.4 26.4 L 278.4 57.9 L 203.4 57.9 Z M 203.4 26.4 " transform="matrix(1.25,0,0,1.25,-116.25,-31.25)"/>
<path style=" stroke:none;fill-rule:nonzero;fill:rgb(0%,0%,0%);fill-opacity:1;" d="M 154.195312 24.5625 L 154.195312 16.515625 L 160.015625 16.515625 L 160.015625 17.453125 L 155.25 17.453125 L 155.25 19.933594 L 159.703125 19.933594 L 159.703125 20.871094 L 155.25 20.871094 L 155.25 23.605469 L 160.191406 23.605469 L 160.191406 24.5625 Z M 154.195312 24.5625 "/>
<path style=" stroke:none;fill-rule:nonzero;fill:rgb(0%,0%,0%);fill-opacity:1;" d="M 161.542969 24.5625 L 161.542969 18.722656 L 162.441406 18.722656 L 162.441406 19.5625 C 162.855469 18.929688 163.476562 18.605469 164.296875 18.605469 C 164.648438 18.605469 164.964844 18.671875 165.253906 18.800781 C 165.550781 18.917969 165.773438 19.085938 165.917969 19.289062 C 166.058594 19.484375 166.164062 19.726562 166.230469 20.011719 C 166.269531 20.195312 166.289062 20.515625 166.289062 20.96875 L 166.289062 24.5625 L 165.292969 24.5625 L 165.292969 21.007812 C 165.292969 20.609375 165.253906 20.304688 165.175781 20.109375 C 165.097656 19.914062 164.960938 19.757812 164.765625 19.640625 C 164.570312 19.515625 164.339844 19.445312 164.082031 19.445312 C 163.664062 19.445312 163.300781 19.582031 162.988281 19.855469 C 162.6875 20.117188 162.539062 20.625 162.539062 21.378906 L 162.539062 24.5625 Z M 161.542969 24.5625 "/>
<path style=" stroke:none;fill-rule:nonzero;fill:rgb(0%,0%,0%);fill-opacity:1;" d="M 169.421875 24.5625 L 167.195312 18.722656 L 168.25 18.722656 L 169.5 22.21875 C 169.625 22.601562 169.753906 22.992188 169.871094 23.390625 C 169.957031 23.09375 170.085938 22.726562 170.242188 22.296875 L 171.53125 18.722656 L 172.546875 18.722656 L 170.339844 24.5625 Z M 169.421875 24.5625 "/>
<path style=" stroke:none;fill-rule:nonzero;fill:rgb(0%,0%,0%);fill-opacity:1;" d="M 173.425781 17.648438 L 173.425781 16.515625 L 174.421875 16.515625 L 174.421875 17.648438 Z M 173.425781 24.5625 L 173.425781 18.722656 L 174.421875 18.722656 L 174.421875 24.5625 Z M 173.425781 24.5625 "/>
<path style=" stroke:none;fill-rule:nonzero;fill:rgb(0%,0%,0%);fill-opacity:1;" d="M 175.90625 24.5625 L 175.90625 18.722656 L 176.804688 18.722656 L 176.804688 19.621094 C 177.023438 19.207031 177.234375 18.933594 177.429688 18.800781 C 177.625 18.671875 177.839844 18.605469 178.074219 18.605469 C 178.394531 18.605469 178.738281 18.710938 179.089844 18.917969 L 178.738281 19.835938 C 178.503906 19.695312 178.257812 19.621094 178.015625 19.621094 C 177.804688 19.621094 177.609375 19.6875 177.429688 19.816406 C 177.257812 19.949219 177.136719 20.128906 177.058594 20.363281 C 176.949219 20.714844 176.902344 21.101562 176.902344 21.515625 L 176.902344 24.5625 Z M 175.90625 24.5625 "/>
<path style=" stroke:none;fill-rule:nonzero;fill:rgb(0%,0%,0%);fill-opacity:1;" d="M 179.300781 21.652344 C 179.300781 20.574219 179.597656 19.773438 180.199219 19.25 C 180.707031 18.820312 181.316406 18.605469 182.035156 18.605469 C 182.839844 18.605469 183.5 18.867188 184.007812 19.386719 C 184.515625 19.910156 184.769531 20.632812 184.769531 21.554688 C 184.769531 22.3125 184.652344 22.902344 184.417969 23.332031 C 184.191406 23.761719 183.871094 24.101562 183.441406 24.347656 C 183.011719 24.582031 182.542969 24.699219 182.035156 24.699219 C 181.214844 24.699219 180.550781 24.441406 180.042969 23.917969 C 179.542969 23.386719 179.300781 22.628906 179.300781 21.652344 Z M 180.316406 21.652344 C 180.316406 22.394531 180.476562 22.957031 180.804688 23.332031 C 181.125 23.699219 181.535156 23.878906 182.035156 23.878906 C 182.527344 23.878906 182.9375 23.699219 183.265625 23.332031 C 183.585938 22.957031 183.753906 22.382812 183.753906 21.613281 C 183.753906 20.898438 183.585938 20.351562 183.265625 19.972656 C 182.9375 19.597656 182.527344 19.40625 182.035156 19.40625 C 181.535156 19.40625 181.125 19.597656 180.804688 19.972656 C 180.476562 20.339844 180.316406 20.898438 180.316406 21.652344 Z M 180.316406 21.652344 "/>
<path style=" stroke:none;fill-rule:nonzero;fill:rgb(0%,0%,0%);fill-opacity:1;" d="M 185.929688 24.5625 L 185.929688 18.722656 L 186.828125 18.722656 L 186.828125 19.5625 C 187.242188 18.929688 187.863281 18.605469 188.683594 18.605469 C 189.035156 18.605469 189.351562 18.671875 189.640625 18.800781 C 189.9375 18.917969 190.15625 19.085938 190.304688 19.289062 C 190.445312 19.484375 190.546875 19.726562 190.617188 20.011719 C 190.65625 20.195312 190.675781 20.515625 190.675781 20.96875 L 190.675781 24.5625 L 189.679688 24.5625 L 189.679688 21.007812 C 189.679688 20.609375 189.640625 20.304688 189.5625 20.109375 C 189.484375 19.914062 189.347656 19.757812 189.152344 19.640625 C 188.957031 19.515625 188.726562 19.445312 188.46875 19.445312 C 188.046875 19.445312 187.6875 19.582031 187.375 19.855469 C 187.070312 20.117188 186.925781 20.625 186.925781 21.378906 L 186.925781 24.5625 Z M 185.929688 24.5625 "/>
<path style=" stroke:none;fill-rule:nonzero;fill:rgb(0%,0%,0%);fill-opacity:1;" d="M 192.1875 24.5625 L 192.1875 18.722656 L 193.066406 18.722656 L 193.066406 19.542969 C 193.246094 19.257812 193.484375 19.03125 193.789062 18.859375 C 194.101562 18.695312 194.453125 18.605469 194.84375 18.605469 C 195.273438 18.605469 195.625 18.699219 195.898438 18.878906 C 196.171875 19.050781 196.367188 19.296875 196.484375 19.621094 C 196.953125 18.945312 197.546875 18.605469 198.28125 18.605469 C 198.867188 18.605469 199.316406 18.773438 199.628906 19.09375 C 199.941406 19.40625 200.097656 19.894531 200.097656 20.558594 L 200.097656 24.5625 L 199.101562 24.5625 L 199.101562 20.890625 C 199.101562 20.492188 199.066406 20.203125 199.003906 20.03125 C 198.949219 19.867188 198.835938 19.726562 198.671875 19.621094 C 198.5 19.503906 198.300781 19.445312 198.066406 19.445312 C 197.660156 19.445312 197.324219 19.582031 197.050781 19.855469 C 196.777344 20.128906 196.640625 20.570312 196.640625 21.164062 L 196.640625 24.5625 L 195.644531 24.5625 L 195.644531 20.773438 C 195.644531 20.335938 195.566406 20 195.410156 19.777344 C 195.253906 19.558594 194.988281 19.445312 194.628906 19.445312 C 194.339844 19.445312 194.082031 19.523438 193.847656 19.679688 C 193.613281 19.828125 193.441406 20.039062 193.339844 20.324219 C 193.230469 20.597656 193.183594 21.003906 193.183594 21.535156 L 193.183594 24.5625 Z M 192.1875 24.5625 "/>
<path style=" stroke:none;fill-rule:nonzero;fill:rgb(0%,0%,0%);fill-opacity:1;" d="M 205.542969 22.6875 L 206.578125 22.804688 C 206.40625 23.40625 206.097656 23.875 205.660156 24.210938 C 205.230469 24.539062 204.671875 24.699219 204 24.699219 C 203.148438 24.699219 202.476562 24.441406 201.96875 23.917969 C 201.46875 23.386719 201.226562 22.644531 201.226562 21.691406 C 201.226562 20.714844 201.480469 19.960938 201.988281 19.425781 C 202.496094 18.878906 203.148438 18.605469 203.960938 18.605469 C 204.742188 18.605469 205.371094 18.875 205.855469 19.40625 C 206.347656 19.929688 206.597656 20.671875 206.597656 21.632812 C 206.597656 21.703125 206.597656 21.789062 206.597656 21.90625 L 202.242188 21.90625 C 202.28125 22.546875 202.460938 23.035156 202.789062 23.371094 C 203.109375 23.710938 203.519531 23.878906 204.019531 23.878906 C 204.378906 23.878906 204.6875 23.789062 204.9375 23.605469 C 205.195312 23.410156 205.394531 23.109375 205.542969 22.6875 Z M 202.300781 21.085938 L 205.5625 21.085938 C 205.523438 20.59375 205.394531 20.222656 205.191406 19.972656 C 204.878906 19.597656 204.46875 19.40625 203.960938 19.40625 C 203.5 19.40625 203.121094 19.5625 202.808594 19.875 C 202.503906 20.179688 202.339844 20.578125 202.300781 21.085938 Z M 202.300781 21.085938 "/>
<path style=" stroke:none;fill-rule:nonzero;fill:rgb(0%,0%,0%);fill-opacity:1;" d="M 207.816406 24.5625 L 207.816406 18.722656 L 208.714844 18.722656 L 208.714844 19.5625 C 209.128906 18.929688 209.75 18.605469 210.570312 18.605469 C 210.921875 18.605469 211.238281 18.671875 211.527344 18.800781 C 211.824219 18.917969 212.042969 19.085938 212.191406 19.289062 C 212.332031 19.484375 212.433594 19.726562 212.503906 20.011719 C 212.542969 20.195312 212.5625 20.515625 212.5625 20.96875 L 212.5625 24.5625 L 211.566406 24.5625 L 211.566406 21.007812 C 211.566406 20.609375 211.527344 20.304688 211.449219 20.109375 C 211.371094 19.914062 211.234375 19.757812 211.039062 19.640625 C 210.84375 19.515625 210.613281 19.445312 210.355469 19.445312 C 209.933594 19.445312 209.574219 19.582031 209.261719 19.855469 C 208.957031 20.117188 208.8125 20.625 208.8125 21.378906 L 208.8125 24.5625 Z M 207.816406 24.5625 "/>
<path style=" stroke:none;fill-rule:nonzero;fill:rgb(0%,0%,0%);fill-opacity:1;" d="M 216.238281 23.683594 L 216.375 24.542969 C 216.089844 24.605469 215.839844 24.640625 215.632812 24.640625 C 215.269531 24.640625 214.988281 24.582031 214.792969 24.464844 C 214.597656 24.347656 214.453125 24.203125 214.363281 24.015625 C 214.285156 23.835938 214.246094 23.449219 214.246094 22.863281 L 214.246094 19.503906 L 213.523438 19.503906 L 213.523438 18.722656 L 214.246094 18.722656 L 214.246094 17.277344 L 215.242188 16.691406 L 215.242188 18.722656 L 216.238281 18.722656 L 216.238281 19.503906 L 215.242188 19.503906 L 215.242188 22.902344 C 215.242188 23.191406 215.253906 23.371094 215.28125 23.449219 C 215.320312 23.527344 215.378906 23.59375 215.457031 23.644531 C 215.535156 23.699219 215.644531 23.722656 215.789062 23.722656 C 215.90625 23.722656 216.054688 23.710938 216.238281 23.683594 Z M 216.238281 23.683594 "/>
<path style="fill:none;stroke-width:1;stroke-linecap:round;stroke-linejoin:miter;stroke:rgb(0%,0%,0%);stroke-opacity:1;stroke-miterlimit:10;" d="M 278.4 42.15 L 288.36875 42.15 C 288.390625 42.15 288.409375 42.15 288.434375 42.153125 L 319.284375 42.559375 C 319.309375 42.559375 319.33125 42.559375 319.35 42.559375 L 351.534375 42.559375 C 354.29375 42.559375 356.534375 44.796875 356.534375 47.559375 L 356.534375 64.090625 " transform="matrix(1.25,0,0,1.25,-116.25,-31.25)"/>
<path style="fill:none;stroke-width:1;stroke-linecap:butt;stroke-linejoin:miter;stroke:rgb(0%,0%,0%);stroke-opacity:1;stroke-miterlimit:10;" d="M 356.534375 68.090625 L 356.534375 64.090625 M 358.034375 64.090625 L 356.534375 68.090625 L 355.034375 64.090625 " transform="matrix(1.25,0,0,1.25,-116.25,-31.25)"/>
<path style="fill:none;stroke-width:1;stroke-linecap:round;stroke-linejoin:miter;stroke:rgb(0%,0%,0%);stroke-opacity:1;stroke-miterlimit:10;" d="M 203.4 42.15 L 193.44375 42.15 C 193.4125 42.15 193.38125 42.15 193.35625 42.15 L 170.69375 41.734375 C 170.6625 41.734375 170.63125 41.734375 170.60625 41.734375 L 149.125 41.734375 C 146.3625 41.734375 144.125 43.971875 144.125 46.734375 L 144.125 64.9 " transform="matrix(1.25,0,0,1.25,-116.25,-31.25)"/>
<path style="fill:none;stroke-width:1;stroke-linecap:butt;stroke-linejoin:miter;stroke:rgb(0%,0%,0%);stroke-opacity:1;stroke-miterlimit:10;" d="M 144.125 68.9 L 144.125 64.9 M 145.625 64.9 L 144.125 68.9 L 142.625 64.9 " transform="matrix(1.25,0,0,1.25,-116.25,-31.25)"/>
<path style="fill:none;stroke-width:1;stroke-linecap:round;stroke-linejoin:miter;stroke:rgb(0%,0%,0%);stroke-opacity:1;stroke-miterlimit:10;" d="M 278.9625 145.25 L 299.3 145.25 " transform="matrix(1.25,0,0,1.25,-116.25,-31.25)"/>
<path style="fill:none;stroke-width:1;stroke-linecap:butt;stroke-linejoin:miter;stroke:rgb(0%,0%,0%);stroke-opacity:1;stroke-miterlimit:10;" d="M 303.3 145.25 L 299.3 145.25 M 299.3 143.75 L 303.3 145.25 L 299.3 146.75 " transform="matrix(1.25,0,0,1.25,-116.25,-31.25)"/>
</g>
</svg>
