<?xml version="1.0" encoding="UTF-8"?><svg xmlns="http://www.w3.org/2000/svg" xmlns:xlink="http://www.w3.org/1999/xlink" fill-opacity="1" color-rendering="auto" color-interpolation="auto" text-rendering="auto" stroke="black" stroke-linecap="square" width="381" stroke-miterlimit="10" shape-rendering="auto" stroke-opacity="1" fill="black" stroke-dasharray="none" font-weight="normal" stroke-width="1" height="300" font-family="'Dialog'" font-style="normal" stroke-linejoin="miter" font-size="12px" stroke-dashoffset="0" image-rendering="auto">
  <!--Generated by ySVG 2.5-->
  <defs id="genericDefs"/>
  <g>
    <defs id="defs1">
      <clipPath clipPathUnits="userSpaceOnUse" id="clipPath1">
        <path d="M0 0 L381 0 L381 300 L0 300 L0 0 Z"/>
      </clipPath>
      <clipPath clipPathUnits="userSpaceOnUse" id="clipPath2">
        <path d="M95 0 L476 0 L476 300 L95 300 L95 0 Z"/>
      </clipPath>
    </defs>
    <g fill="white" text-rendering="geometricPrecision" shape-rendering="geometricPrecision" transform="translate(-95,0)" stroke="white">
      <rect x="95" width="381" height="300" y="0" clip-path="url(#clipPath2)" stroke="none"/>
    </g>
    <g fill="rgb(204,255,255)" text-rendering="geometricPrecision" shape-rendering="geometricPrecision" transform="matrix(1,0,0,1,-95,0)" stroke="rgb(204,255,255)">
      <rect x="290" y="105" clip-path="url(#clipPath2)" width="80" rx="4" ry="4" height="30" stroke="none"/>
    </g>
    <g text-rendering="geometricPrecision" stroke-miterlimit="1.45" shape-rendering="geometricPrecision" transform="matrix(1,0,0,1,-95,0)" stroke-linecap="butt">
      <rect x="290" y="105" clip-path="url(#clipPath2)" fill="none" width="80" rx="4" ry="4" height="30"/>
      <text x="301.6934" xml:space="preserve" y="124.1543" clip-path="url(#clipPath2)" font-family="sans-serif" stroke="none">5x5 Conv</text>
    </g>
    <g fill="rgb(204,255,255)" text-rendering="geometricPrecision" shape-rendering="geometricPrecision" transform="matrix(1,0,0,1,-95,0)" stroke="rgb(204,255,255)">
      <rect x="200" y="105" clip-path="url(#clipPath2)" width="80" rx="4" ry="4" height="30" stroke="none"/>
    </g>
    <g text-rendering="geometricPrecision" stroke-miterlimit="1.45" shape-rendering="geometricPrecision" transform="matrix(1,0,0,1,-95,0)" stroke-linecap="butt">
      <rect x="200" y="105" clip-path="url(#clipPath2)" fill="none" width="80" rx="4" ry="4" height="30"/>
      <text x="211.6934" xml:space="preserve" y="124.1543" clip-path="url(#clipPath2)" font-family="sans-serif" stroke="none">3x3 Conv</text>
    </g>
    <g fill="rgb(204,255,255)" text-rendering="geometricPrecision" shape-rendering="geometricPrecision" transform="matrix(1,0,0,1,-95,0)" stroke="rgb(204,255,255)">
      <rect x="110" y="105" clip-path="url(#clipPath2)" width="80" rx="4" ry="4" height="30" stroke="none"/>
    </g>
    <g text-rendering="geometricPrecision" stroke-miterlimit="1.45" shape-rendering="geometricPrecision" transform="matrix(1,0,0,1,-95,0)" stroke-linecap="butt">
      <rect x="110" y="105" clip-path="url(#clipPath2)" fill="none" width="80" rx="4" ry="4" height="30"/>
      <text x="121.6934" xml:space="preserve" y="124.1543" clip-path="url(#clipPath2)" font-family="sans-serif" stroke="none">1x1 Conv</text>
    </g>
    <g fill="rgb(204,255,255)" text-rendering="geometricPrecision" shape-rendering="geometricPrecision" transform="matrix(1,0,0,1,-95,0)" stroke="rgb(204,255,255)">
      <rect x="195" y="15" clip-path="url(#clipPath2)" width="90" rx="4" ry="4" height="30" stroke="none"/>
    </g>
    <g text-rendering="geometricPrecision" stroke-miterlimit="1.45" shape-rendering="geometricPrecision" transform="matrix(1,0,0,1,-95,0)" stroke-linecap="butt">
      <rect x="195" y="15" clip-path="url(#clipPath2)" fill="none" width="90" rx="4" ry="4" height="30"/>
      <text x="195.7705" xml:space="preserve" y="34.1543" clip-path="url(#clipPath2)" font-family="sans-serif" stroke="none">Previous Layer</text>
    </g>
    <g fill="rgb(204,255,255)" text-rendering="geometricPrecision" shape-rendering="geometricPrecision" transform="matrix(1,0,0,1,-95,0)" stroke="rgb(204,255,255)">
      <rect x="195" y="255" clip-path="url(#clipPath2)" width="90" rx="4" ry="4" height="30" stroke="none"/>
    </g>
    <g text-rendering="geometricPrecision" stroke-miterlimit="1.45" shape-rendering="geometricPrecision" transform="matrix(1,0,0,1,-95,0)" stroke-linecap="butt">
      <rect x="195" y="255" clip-path="url(#clipPath2)" fill="none" width="90" rx="4" ry="4" height="30"/>
      <text x="207.2812" xml:space="preserve" y="274.1543" clip-path="url(#clipPath2)" font-family="sans-serif" stroke="none">Next Layer</text>
    </g>
    <g fill="rgb(204,255,255)" text-rendering="geometricPrecision" shape-rendering="geometricPrecision" transform="matrix(1,0,0,1,-95,0)" stroke="rgb(204,255,255)">
      <rect x="380" y="105" clip-path="url(#clipPath2)" width="80" rx="4" ry="4" height="30" stroke="none"/>
    </g>
    <g text-rendering="geometricPrecision" stroke-miterlimit="1.45" shape-rendering="geometricPrecision" transform="matrix(1,0,0,1,-95,0)" stroke-linecap="butt">
      <rect x="380" y="105" clip-path="url(#clipPath2)" fill="none" width="80" rx="4" ry="4" height="30"/>
      <text x="381.876" xml:space="preserve" y="124.1543" clip-path="url(#clipPath2)" font-family="sans-serif" stroke="none">3x3 MaxPool</text>
    </g>
    <g fill="rgb(204,255,255)" text-rendering="geometricPrecision" shape-rendering="geometricPrecision" transform="matrix(1,0,0,1,-95,0)" stroke="rgb(204,255,255)">
      <rect x="200" y="165" clip-path="url(#clipPath2)" width="80" rx="4" ry="4" height="30" stroke="none"/>
    </g>
    <g text-rendering="geometricPrecision" stroke-miterlimit="1.45" shape-rendering="geometricPrecision" transform="matrix(1,0,0,1,-95,0)" stroke-linecap="butt">
      <rect x="200" y="165" clip-path="url(#clipPath2)" fill="none" width="80" rx="4" ry="4" height="30"/>
      <text x="224.4053" xml:space="preserve" y="184.1543" clip-path="url(#clipPath2)" font-family="sans-serif" stroke="none">ReLU</text>
    </g>
    <g fill="rgb(204,255,255)" text-rendering="geometricPrecision" shape-rendering="geometricPrecision" transform="matrix(1,0,0,1,-95,0)" stroke="rgb(204,255,255)">
      <rect x="110" y="165" clip-path="url(#clipPath2)" width="80" rx="4" ry="4" height="30" stroke="none"/>
    </g>
    <g text-rendering="geometricPrecision" stroke-miterlimit="1.45" shape-rendering="geometricPrecision" transform="matrix(1,0,0,1,-95,0)" stroke-linecap="butt">
      <rect x="110" y="165" clip-path="url(#clipPath2)" fill="none" width="80" rx="4" ry="4" height="30"/>
      <text x="134.4053" xml:space="preserve" y="184.1543" clip-path="url(#clipPath2)" font-family="sans-serif" stroke="none">ReLU</text>
    </g>
    <g fill="rgb(204,255,255)" text-rendering="geometricPrecision" shape-rendering="geometricPrecision" transform="matrix(1,0,0,1,-95,0)" stroke="rgb(204,255,255)">
      <rect x="290" y="165" clip-path="url(#clipPath2)" width="80" rx="4" ry="4" height="30" stroke="none"/>
    </g>
    <g text-rendering="geometricPrecision" stroke-miterlimit="1.45" shape-rendering="geometricPrecision" transform="matrix(1,0,0,1,-95,0)" stroke-linecap="butt">
      <rect x="290" y="165" clip-path="url(#clipPath2)" fill="none" width="80" rx="4" ry="4" height="30"/>
      <text x="314.4053" xml:space="preserve" y="184.1543" clip-path="url(#clipPath2)" font-family="sans-serif" stroke="none">ReLU</text>
      <path fill="none" d="M240 44.9707 L240 60 L330 60 L330 96.9707" clip-path="url(#clipPath2)"/>
      <path d="M330 104.9707 L335 92.9707 L330 95.9707 L325 92.9707 Z" clip-path="url(#clipPath2)" stroke="none"/>
      <path fill="none" d="M240 44.9854 L240 97.0191" clip-path="url(#clipPath2)"/>
      <path d="M240 105.0191 L245 93.0191 L240 96.0191 L235 93.0191 Z" clip-path="url(#clipPath2)" stroke="none"/>
      <path fill="none" d="M240 44.9707 L240 60 L150 60 L150 96.9707" clip-path="url(#clipPath2)"/>
      <path d="M150 104.9707 L155 92.9707 L150 95.9707 L145 92.9707 Z" clip-path="url(#clipPath2)" stroke="none"/>
      <path fill="none" d="M240 44.9707 L240 60 L420 60 L420 96.9707" clip-path="url(#clipPath2)"/>
      <path d="M420 104.9707 L425 92.9707 L420 95.9707 L415 92.9707 Z" clip-path="url(#clipPath2)" stroke="none"/>
      <path fill="none" d="M420 134.9854 L420 210 L240 210 L240 246.9707" clip-path="url(#clipPath2)"/>
      <path d="M240 254.9707 L245 242.9707 L240 245.9707 L235 242.9707 Z" clip-path="url(#clipPath2)" stroke="none"/>
      <path fill="none" d="M240 134.9707 L240 157.0049" clip-path="url(#clipPath2)"/>
      <path d="M240 165.0049 L245 153.0049 L240 156.0049 L235 153.0049 Z" clip-path="url(#clipPath2)" stroke="none"/>
      <path fill="none" d="M240 195.0098 L240 197.04 L240 240 L240 246.9707" clip-path="url(#clipPath2)"/>
      <path d="M240 254.9707 L245 242.9707 L240 245.9707 L235 242.9707 Z" clip-path="url(#clipPath2)" stroke="none"/>
      <path fill="none" d="M150 134.9707 L150 157.0049" clip-path="url(#clipPath2)"/>
      <path d="M150 165.0049 L155 153.0049 L150 156.0049 L145 153.0049 Z" clip-path="url(#clipPath2)" stroke="none"/>
      <path fill="none" d="M150 194.9707 L150 210 L240 210 L240 246.9707" clip-path="url(#clipPath2)"/>
      <path d="M240 254.9707 L245 242.9707 L240 245.9707 L235 242.9707 Z" clip-path="url(#clipPath2)" stroke="none"/>
      <path fill="none" d="M330 134.9707 L330 157.0049" clip-path="url(#clipPath2)"/>
      <path d="M330 165.0049 L335 153.0049 L330 156.0049 L325 153.0049 Z" clip-path="url(#clipPath2)" stroke="none"/>
      <path fill="none" d="M330 194.9707 L330 210 L240 210 L240 246.9707" clip-path="url(#clipPath2)"/>
      <path d="M240 254.9707 L245 242.9707 L240 245.9707 L235 242.9707 Z" clip-path="url(#clipPath2)" stroke="none"/>
    </g>
  </g>
</svg>
