<?xml version="1.0" encoding="UTF-8"?><svg xmlns="http://www.w3.org/2000/svg" xmlns:xlink="http://www.w3.org/1999/xlink" fill-opacity="1" color-rendering="auto" color-interpolation="auto" text-rendering="auto" stroke="black" stroke-linecap="square" width="350" stroke-miterlimit="10" shape-rendering="auto" stroke-opacity="1" fill="black" stroke-dasharray="none" font-weight="normal" stroke-width="1" height="260" font-family="'Dialog'" font-style="normal" stroke-linejoin="miter" font-size="12px" stroke-dashoffset="0" image-rendering="auto">
  <!--Generated by ySVG 2.5-->
  <defs id="genericDefs"/>
  <g>
    <defs id="defs1">
      <clipPath clipPathUnits="userSpaceOnUse" id="clipPath1">
        <path d="M0 0 L350 0 L350 260 L0 260 L0 0 Z"/>
      </clipPath>
      <clipPath clipPathUnits="userSpaceOnUse" id="clipPath2">
        <path d="M680 290 L1030 290 L1030 550 L680 550 L680 290 Z"/>
      </clipPath>
      <clipPath clipPathUnits="userSpaceOnUse" id="clipPath3">
        <path d="M0 0 L0 20 L12 20 L12 0 Z"/>
      </clipPath>
      <clipPath clipPathUnits="userSpaceOnUse" id="clipPath4">
        <path d="M0 0 L0 20 L15 20 L15 0 Z"/>
      </clipPath>
    </defs>
    <g fill="white" text-rendering="geometricPrecision" shape-rendering="geometricPrecision" transform="translate(-680,-290)" stroke="white">
      <rect x="680" width="350" height="260" y="290" clip-path="url(#clipPath2)" stroke="none"/>
    </g>
    <g fill="rgb(255,204,0)" text-rendering="geometricPrecision" shape-rendering="geometricPrecision" transform="matrix(1,0,0,1,-680,-290)" stroke="rgb(255,204,0)">
      <circle r="25" clip-path="url(#clipPath2)" cx="851" cy="420" stroke="none"/>
    </g>
    <g text-rendering="geometricPrecision" stroke-miterlimit="1.45" shape-rendering="geometricPrecision" transform="matrix(1,0,0,1,-680,-290)" stroke-linecap="butt">
      <circle fill="none" r="25" clip-path="url(#clipPath2)" cx="851" cy="420"/>
      <text x="847.3232" xml:space="preserve" y="424.1543" clip-path="url(#clipPath2)" font-family="sans-serif" stroke="none">a</text>
      <text x="969.1582" xml:space="preserve" y="424.1543" clip-path="url(#clipPath2)" font-family="sans-serif" stroke="none">Output</text>
    </g>
    <g text-rendering="geometricPrecision" stroke-miterlimit="1.45" shape-rendering="geometricPrecision" font-family="sans-serif" transform="matrix(1,0,0,1,-680,-290) translate(714,320)" stroke-linecap="butt">
      <text x="0" xml:space="preserve" y="12" clip-path="url(#clipPath3)" stroke="none">x</text>
      <text x="6" xml:space="preserve" font-size="10px" y="17" clip-path="url(#clipPath3)" stroke="none">1</text>
    </g>
    <g text-rendering="geometricPrecision" stroke-miterlimit="1.45" shape-rendering="geometricPrecision" font-family="sans-serif" transform="matrix(1,0,0,1,-680,-290) translate(714,410)" stroke-linecap="butt">
      <text x="0" xml:space="preserve" y="12" clip-path="url(#clipPath3)" stroke="none">x</text>
      <text x="6" xml:space="preserve" font-size="10px" y="17" clip-path="url(#clipPath3)" stroke="none">2</text>
    </g>
    <g text-rendering="geometricPrecision" stroke-miterlimit="1.45" shape-rendering="geometricPrecision" font-family="sans-serif" transform="matrix(1,0,0,1,-680,-290) translate(714,500)" stroke-linecap="butt">
      <text x="0" xml:space="preserve" y="12" clip-path="url(#clipPath3)" stroke="none">x</text>
      <text x="6" xml:space="preserve" font-size="10px" y="17" clip-path="url(#clipPath3)" stroke="none">3</text>
    </g>
    <g text-rendering="geometricPrecision" stroke-miterlimit="1.45" shape-rendering="geometricPrecision" transform="matrix(1,0,0,1,-680,-290)" stroke-linecap="butt">
      <path fill="none" d="M876 420 L957 420" clip-path="url(#clipPath2)"/>
      <path d="M965 420 L953 415 L956 420 L953 425 Z" clip-path="url(#clipPath2)" stroke="none"/>
      <path fill="none" d="M740.6057 344.1566 L823.8005 401.3134" clip-path="url(#clipPath2)"/>
      <path d="M830.3943 405.8434 L823.335 394.9272 L822.9763 400.7471 L817.6723 403.1694 Z" clip-path="url(#clipPath2)" stroke="none"/>
    </g>
    <g text-rendering="geometricPrecision" stroke-miterlimit="1.45" shape-rendering="geometricPrecision" font-family="sans-serif" transform="matrix(1,0,0,1,-680,-290) translate(777,349)" stroke-linecap="butt">
      <text x="0" xml:space="preserve" y="12" clip-path="url(#clipPath4)" stroke="none">w</text>
      <text x="9" xml:space="preserve" font-size="10px" y="17" clip-path="url(#clipPath4)" stroke="none">1</text>
    </g>
    <g text-rendering="geometricPrecision" stroke-miterlimit="1.45" shape-rendering="geometricPrecision" transform="matrix(1,0,0,1,-680,-290)" stroke-linecap="butt">
      <path fill="none" d="M745 420 L818 420" clip-path="url(#clipPath2)"/>
      <path d="M826 420 L814 415 L817 420 L814 425 Z" clip-path="url(#clipPath2)" stroke="none"/>
    </g>
    <g text-rendering="geometricPrecision" stroke-miterlimit="1.45" shape-rendering="geometricPrecision" font-family="sans-serif" transform="matrix(1,0,0,1,-680,-290) translate(771,395)" stroke-linecap="butt">
      <text x="0" xml:space="preserve" y="12" clip-path="url(#clipPath4)" stroke="none">w</text>
      <text x="9" xml:space="preserve" font-size="10px" y="17" clip-path="url(#clipPath4)" stroke="none">2</text>
    </g>
    <g text-rendering="geometricPrecision" stroke-miterlimit="1.45" shape-rendering="geometricPrecision" transform="matrix(1,0,0,1,-680,-290)" stroke-linecap="butt">
      <path fill="none" d="M740.6057 495.8434 L823.8005 438.6866" clip-path="url(#clipPath2)"/>
      <path d="M830.3943 434.1566 L817.6723 436.8306 L822.9763 439.2529 L823.335 445.0728 Z" clip-path="url(#clipPath2)" stroke="none"/>
    </g>
    <g text-rendering="geometricPrecision" stroke-miterlimit="1.45" shape-rendering="geometricPrecision" font-family="sans-serif" transform="matrix(1,0,0,1,-680,-290) translate(782,471)" stroke-linecap="butt">
      <text x="0" xml:space="preserve" y="12" clip-path="url(#clipPath4)" stroke="none">w</text>
      <text x="9" xml:space="preserve" font-size="10px" y="17" clip-path="url(#clipPath4)" stroke="none">3</text>
    </g>
  </g>
</svg>
