<?xml version="1.0" encoding="UTF-8"?><svg xmlns="http://www.w3.org/2000/svg" xmlns:xlink="http://www.w3.org/1999/xlink" fill-opacity="1" color-rendering="auto" color-interpolation="auto" text-rendering="auto" stroke="black" stroke-linecap="square" width="235" stroke-miterlimit="10" shape-rendering="auto" stroke-opacity="1" fill="black" stroke-dasharray="none" font-weight="normal" stroke-width="1" height="132" font-family="'Dialog'" font-style="normal" stroke-linejoin="miter" font-size="12px" stroke-dashoffset="0" image-rendering="auto">
  <!--Generated by ySVG 2.5-->
  <defs id="genericDefs"/>
  <g>
    <defs id="defs1">
      <clipPath clipPathUnits="userSpaceOnUse" id="clipPath1">
        <path d="M0 0 L235 0 L235 132 L0 132 L0 0 Z"/>
      </clipPath>
      <clipPath clipPathUnits="userSpaceOnUse" id="clipPath2">
        <path d="M810 413 L1045 413 L1045 545 L810 545 L810 413 Z"/>
      </clipPath>
      <clipPath clipPathUnits="userSpaceOnUse" id="clipPath3">
        <path d="M0 0 L0 20 L13 20 L13 0 Z"/>
      </clipPath>
      <clipPath clipPathUnits="userSpaceOnUse" id="clipPath4">
        <path d="M0 0 L0 20 L22 20 L22 0 Z"/>
      </clipPath>
      <clipPath clipPathUnits="userSpaceOnUse" id="clipPath5">
        <path d="M0 0 L0 20 L14 20 L14 0 Z"/>
      </clipPath>
    </defs>
    <g fill="white" text-rendering="geometricPrecision" shape-rendering="geometricPrecision" transform="translate(-810,-413)" stroke="white">
      <rect x="810" width="235" height="132" y="413" clip-path="url(#clipPath2)" stroke="none"/>
    </g>
    <g text-rendering="geometricPrecision" stroke-miterlimit="1.45" shape-rendering="geometricPrecision" transform="matrix(1,0,0,1,-810,-413)" stroke-linecap="butt">
      <rect fill="none" x="825" width="30" height="30" y="435" clip-path="url(#clipPath2)"/>
    </g>
    <g text-rendering="geometricPrecision" stroke-miterlimit="1.45" shape-rendering="geometricPrecision" font-family="sans-serif" transform="matrix(1,0,0,1,-810,-413) translate(833,440)" stroke-linecap="butt">
      <text x="0" xml:space="preserve" y="12" clip-path="url(#clipPath3)" stroke="none">x</text>
      <text x="7" xml:space="preserve" font-size="10px" y="17" clip-path="url(#clipPath3)" stroke="none">1</text>
    </g>
    <g text-rendering="geometricPrecision" stroke-miterlimit="1.45" shape-rendering="geometricPrecision" transform="matrix(1,0,0,1,-810,-413)" stroke-linecap="butt">
      <rect fill="none" x="825" width="30" height="30" y="495" clip-path="url(#clipPath2)"/>
    </g>
    <g text-rendering="geometricPrecision" stroke-miterlimit="1.45" shape-rendering="geometricPrecision" font-family="sans-serif" transform="matrix(1,0,0,1,-810,-413) translate(833,500)" stroke-linecap="butt">
      <text x="0" xml:space="preserve" y="12" clip-path="url(#clipPath3)" stroke="none">x</text>
      <text x="7" xml:space="preserve" font-size="10px" y="17" clip-path="url(#clipPath3)" stroke="none">2</text>
    </g>
    <g text-rendering="geometricPrecision" stroke-miterlimit="1.45" shape-rendering="geometricPrecision" transform="matrix(1,0,0,1,-810,-413)" stroke-linecap="butt">
      <circle fill="none" r="15" clip-path="url(#clipPath2)" cx="960" cy="450"/>
    </g>
    <g text-rendering="geometricPrecision" stroke-miterlimit="1.45" shape-rendering="geometricPrecision" font-family="sans-serif" transform="matrix(1,0,0,1,-810,-413) translate(953,440)" stroke-linecap="butt">
      <text x="0" xml:space="preserve" y="12" clip-path="url(#clipPath3)" stroke="none">y</text>
      <text x="7" xml:space="preserve" font-size="10px" y="17" clip-path="url(#clipPath3)" stroke="none">1</text>
    </g>
    <g text-rendering="geometricPrecision" stroke-miterlimit="1.45" shape-rendering="geometricPrecision" transform="matrix(1,0,0,1,-810,-413)" stroke-linecap="butt">
      <rect fill="none" x="999.4" width="30" height="30" y="465" clip-path="url(#clipPath2)"/>
      <text x="1010.5826" xml:space="preserve" y="484.1543" clip-path="url(#clipPath2)" font-family="sans-serif" stroke="none">1</text>
      <circle fill="none" r="15" clip-path="url(#clipPath2)" cx="960" cy="510"/>
    </g>
    <g text-rendering="geometricPrecision" stroke-miterlimit="1.45" shape-rendering="geometricPrecision" font-family="sans-serif" transform="matrix(1,0,0,1,-810,-413) translate(953,500)" stroke-linecap="butt">
      <text x="0" xml:space="preserve" y="12" clip-path="url(#clipPath3)" stroke="none">y</text>
      <text x="7" xml:space="preserve" font-size="10px" y="17" clip-path="url(#clipPath3)" stroke="none">2</text>
    </g>
    <g text-rendering="geometricPrecision" stroke-miterlimit="1.45" shape-rendering="geometricPrecision" transform="matrix(1,0,0,1,-810,-413)" stroke-linecap="butt">
      <path fill="none" d="M855 450 L937 450" clip-path="url(#clipPath2)"/>
      <path d="M945 450 L933 445 L936 450 L933 455 Z" clip-path="url(#clipPath2)" stroke="none"/>
    </g>
    <g text-rendering="geometricPrecision" stroke-miterlimit="1.45" shape-rendering="geometricPrecision" font-family="sans-serif" transform="matrix(1,0,0,1,-810,-413) translate(886,430)" stroke-linecap="butt">
      <text x="0" xml:space="preserve" y="12" clip-path="url(#clipPath4)" stroke="none">w</text>
      <text x="10" xml:space="preserve" font-size="10px" y="17" clip-path="url(#clipPath4)" stroke="none">11</text>
    </g>
    <g text-rendering="geometricPrecision" stroke-miterlimit="1.45" shape-rendering="geometricPrecision" transform="matrix(1,0,0,1,-810,-413)" stroke-linecap="butt">
      <path fill="none" d="M855 502.5 L939.4282 460.2859" clip-path="url(#clipPath2)"/>
      <path d="M946.5836 456.7082 L933.6144 457.6027 L938.5337 460.7332 L938.0865 466.5469 Z" clip-path="url(#clipPath2)" stroke="none"/>
    </g>
    <g text-rendering="geometricPrecision" stroke-miterlimit="1.45" shape-rendering="geometricPrecision" font-family="sans-serif" transform="matrix(1,0,0,1,-810,-413) translate(878,485)" stroke-linecap="butt">
      <text x="0" xml:space="preserve" y="12" clip-path="url(#clipPath4)" stroke="none">w</text>
      <text x="10" xml:space="preserve" font-size="10px" y="17" clip-path="url(#clipPath4)" stroke="none">21</text>
    </g>
    <g text-rendering="geometricPrecision" stroke-miterlimit="1.45" shape-rendering="geometricPrecision" transform="matrix(1,0,0,1,-810,-413)" stroke-linecap="butt">
      <path fill="none" d="M999.4 471.7279 L980.1404 461.1069" clip-path="url(#clipPath2)"/>
      <path d="M973.1351 457.2436 L981.2286 467.4169 L981.0161 461.5898 L986.0577 458.6602 Z" clip-path="url(#clipPath2)" stroke="none"/>
    </g>
    <g text-rendering="geometricPrecision" stroke-miterlimit="1.45" shape-rendering="geometricPrecision" font-family="sans-serif" transform="matrix(1,0,0,1,-810,-413) translate(985,441)" stroke-linecap="butt">
      <text x="0" xml:space="preserve" y="12" clip-path="url(#clipPath5)" stroke="none">b</text>
      <text x="8" xml:space="preserve" font-size="10px" y="17" clip-path="url(#clipPath5)" stroke="none">1</text>
    </g>
    <g text-rendering="geometricPrecision" stroke-miterlimit="1.45" shape-rendering="geometricPrecision" transform="matrix(1,0,0,1,-810,-413)" stroke-linecap="butt">
      <path fill="none" d="M855 457.5 L939.4282 499.7141" clip-path="url(#clipPath2)"/>
      <path d="M946.5836 503.2918 L938.0865 493.4531 L938.5337 499.2668 L933.6144 502.3973 Z" clip-path="url(#clipPath2)" stroke="none"/>
    </g>
    <g text-rendering="geometricPrecision" stroke-miterlimit="1.45" shape-rendering="geometricPrecision" font-family="sans-serif" transform="matrix(1,0,0,1,-810,-413) translate(859,461)" stroke-linecap="butt">
      <text x="0" xml:space="preserve" y="12" clip-path="url(#clipPath4)" stroke="none">w</text>
      <text x="10" xml:space="preserve" font-size="10px" y="17" clip-path="url(#clipPath4)" stroke="none">12</text>
    </g>
    <g text-rendering="geometricPrecision" stroke-miterlimit="1.45" shape-rendering="geometricPrecision" transform="matrix(1,0,0,1,-810,-413)" stroke-linecap="butt">
      <path fill="none" d="M855 510 L937 510" clip-path="url(#clipPath2)"/>
      <path d="M945 510 L933 505 L936 510 L933 515 Z" clip-path="url(#clipPath2)" stroke="none"/>
    </g>
    <g text-rendering="geometricPrecision" stroke-miterlimit="1.45" shape-rendering="geometricPrecision" font-family="sans-serif" transform="matrix(1,0,0,1,-810,-413) translate(889,507)" stroke-linecap="butt">
      <text x="0" xml:space="preserve" y="12" clip-path="url(#clipPath4)" stroke="none">w</text>
      <text x="10" xml:space="preserve" font-size="10px" y="17" clip-path="url(#clipPath4)" stroke="none">22</text>
    </g>
    <g text-rendering="geometricPrecision" stroke-miterlimit="1.45" shape-rendering="geometricPrecision" transform="matrix(1,0,0,1,-810,-413)" stroke-linecap="butt">
      <path fill="none" d="M999.4 488.2721 L980.1404 498.8931" clip-path="url(#clipPath2)"/>
      <path d="M973.1351 502.7564 L986.0577 501.3398 L981.0161 498.4102 L981.2286 492.5831 Z" clip-path="url(#clipPath2)" stroke="none"/>
    </g>
    <g text-rendering="geometricPrecision" stroke-miterlimit="1.45" shape-rendering="geometricPrecision" font-family="sans-serif" transform="matrix(1,0,0,1,-810,-413) translate(991,497)" stroke-linecap="butt">
      <text x="0" xml:space="preserve" y="12" clip-path="url(#clipPath5)" stroke="none">b</text>
      <text x="8" xml:space="preserve" font-size="10px" y="17" clip-path="url(#clipPath5)" stroke="none">2</text>
    </g>
  </g>
</svg>
